{
  "version": "1.1.3",
  "modules": [
    {
      "id": 24,
      "plugin": "Fundamental",
      "version": "1.1.1",
      "model": "SEQ3",
      "params": [
        {
          "id": 0,
          "value": 3.16800046
        },
        {
          "id": 1,
          "value": 0.0
        },
        {
          "id": 2,
          "value": 0.0
        },
        {
          "id": 3,
          "value": 8.0
        },
        {
          "id": 4,
          "value": 0.0
        },
        {
          "id": 5,
          "value": 0.0
        },
        {
          "id": 6,
          "value": 0.0
        },
        {
          "id": 7,
          "value": 0.0
        },
        {
          "id": 8,
          "value": 0.0
        },
        {
          "id": 9,
          "value": 0.0
        },
        {
          "id": 10,
          "value": 0.0
        },
        {
          "id": 11,
          "value": 0.0
        },
        {
          "id": 12,
          "value": 0.0
        },
        {
          "id": 13,
          "value": 0.0
        },
        {
          "id": 14,
          "value": 0.0
        },
        {
          "id": 15,
          "value": 0.0
        },
        {
          "id": 16,
          "value": 0.0
        },
        {
          "id": 17,
          "value": 0.0
        },
        {
          "id": 18,
          "value": 0.0
        },
        {
          "id": 19,
          "value": 0.0
        },
        {
          "id": 20,
          "value": 0.0
        },
        {
          "id": 21,
          "value": 0.0
        },
        {
          "id": 22,
          "value": 0.0
        },
        {
          "id": 23,
          "value": 0.0
        },
        {
          "id": 24,
          "value": 0.0
        },
        {
          "id": 25,
          "value": 0.0
        },
        {
          "id": 26,
          "value": 0.0
        },
        {
          "id": 27,
          "value": 0.0
        },
        {
          "id": 28,
          "value": 0.0
        },
        {
          "id": 29,
          "value": 0.0
        },
        {
          "id": 30,
          "value": 0.0
        },
        {
          "id": 31,
          "value": 0.0
        },
        {
          "id": 32,
          "value": 0.0
        },
        {
          "id": 33,
          "value": 0.0
        },
        {
          "id": 34,
          "value": 0.0
        },
        {
          "id": 35,
          "value": 0.0
        }
      ],
      "rightModuleId": 71,
      "data": {
        "running": true,
        "gates": [
          1,
          1,
          1,
          1,
          1,
          1,
          1,
          1
        ]
      },
      "pos": [
        0,
        1
      ]
    },
    {
      "id": 28,
      "plugin": "Fundamental",
      "version": "1.1.1",
      "model": "ADSR",
      "params": [
        {
          "id": 0,
          "value": 0.566000342
        },
        {
          "id": 1,
          "value": 0.5
        },
        {
          "id": 2,
          "value": 0.5
        },
        {
          "id": 3,
          "value": 0.5
        }
      ],
      "leftModuleId": 27,
      "rightModuleId": 66,
      "pos": [
        13,
        2
      ]
    },
    {
      "id": 29,
      "plugin": "Fundamental",
      "version": "1.1.1",
      "model": "VCF",
      "params": [
        {
          "id": 0,
          "value": 0.513500154
        },
        {
          "id": 1,
          "value": 0.5
        },
        {
          "id": 2,
          "value": 0.0
        },
        {
          "id": 3,
          "value": 0.0
        },
        {
          "id": 4,
          "value": 0.000999885611
        }
      ],
      "leftModuleId": 73,
      "rightModuleId": 33,
      "pos": [
        32,
        2
      ]
    },
    {
      "id": 33,
      "plugin": "Fundamental",
      "version": "1.1.1",
      "model": "ADSR",
      "params": [
        {
          "id": 0,
          "value": 0.57950002
        },
        {
          "id": 1,
          "value": 0.5
        },
        {
          "id": 2,
          "value": 0.5
        },
        {
          "id": 3,
          "value": 0.5
        }
      ],
      "leftModuleId": 29,
      "rightModuleId": 67,
      "pos": [
        40,
        2
      ]
    },
    {
      "id": 36,
      "plugin": "Fundamental",
      "version": "1.1.1",
      "model": "ADSR",
      "params": [
        {
          "id": 0,
          "value": 0.593000114
        },
        {
          "id": 1,
          "value": 0.5
        },
        {
          "id": 2,
          "value": 0.5
        },
        {
          "id": 3,
          "value": 0.5
        }
      ],
      "leftModuleId": 35,
      "rightModuleId": 68,
      "pos": [
        67,
        2
      ]
    },
    {
      "id": 39,
      "plugin": "Fundamental",
      "version": "1.1.1",
      "model": "ADSR",
      "params": [
        {
          "id": 0,
          "value": 0.590000093
        },
        {
          "id": 1,
          "value": 0.5
        },
        {
          "id": 2,
          "value": 0.5
        },
        {
          "id": 3,
          "value": 0.49849999
        }
      ],
      "leftModuleId": 59,
      "rightModuleId": 69,
      "pos": [
        94,
        2
      ]
    },
    {
      "id": 41,
      "plugin": "Fundamental",
      "version": "1.1.1",
      "model": "VCF",
      "params": [
        {
          "id": 0,
          "value": 0.5
        },
        {
          "id": 1,
          "value": 0.5
        },
        {
          "id": 2,
          "value": 0.0
        },
        {
          "id": 3,
          "value": 0.0
        },
        {
          "id": 4,
          "value": 0.0
        }
      ],
      "leftModuleId": 60,
      "rightModuleId": 42,
      "pos": [
        110,
        2
      ]
    },
    {
      "id": 42,
      "plugin": "Fundamental",
      "version": "1.1.1",
      "model": "ADSR",
      "params": [
        {
          "id": 0,
          "value": 0.608500004
        },
        {
          "id": 1,
          "value": 0.5
        },
        {
          "id": 2,
          "value": 0.5
        },
        {
          "id": 3,
          "value": 0.5
        }
      ],
      "leftModuleId": 41,
      "rightModuleId": 70,
      "pos": [
        118,
        2
      ]
    },
    {
      "id": 54,
      "plugin": "Bogaudio",
      "version": "1.1.21",
      "model": "Bogaudio-Reftone",
      "params": [
        {
          "id": 0,
          "value": 2.0
        },
        {
          "id": 1,
          "value": 4.0
        },
        {
          "id": 2,
          "value": 0.0
        }
      ],
      "rightModuleId": 27,
      "pos": [
        2,
        2
      ]
    },
    {
      "id": 55,
      "plugin": "Bogaudio",
      "version": "1.1.21",
      "model": "Bogaudio-Reftone",
      "params": [
        {
          "id": 0,
          "value": 4.0
        },
        {
          "id": 1,
          "value": 4.0
        },
        {
          "id": 2,
          "value": 0.0
        }
      ],
      "rightModuleId": 73,
      "pos": [
        26,
        2
      ]
    },
    {
      "id": 56,
      "plugin": "Bogaudio",
      "version": "1.1.21",
      "model": "Bogaudio-Reftone",
      "params": [
        {
          "id": 0,
          "value": 9.0
        },
        {
          "id": 1,
          "value": 4.0
        },
        {
          "id": 2,
          "value": 0.0
        }
      ],
      "rightModuleId": 74,
      "pos": [
        53,
        2
      ]
    },
    {
      "id": 57,
      "plugin": "Bogaudio",
      "version": "1.1.21",
      "model": "Bogaudio-Reftone",
      "params": [
        {
          "id": 0,
          "value": 10.0
        },
        {
          "id": 1,
          "value": 4.0
        },
        {
          "id": 2,
          "value": 0.0
        }
      ],
      "rightModuleId": 75,
      "pos": [
        80,
        2
      ]
    },
    {
      "id": 59,
      "plugin": "Fundamental",
      "version": "1.1.1",
      "model": "VCF",
      "params": [
        {
          "id": 0,
          "value": 0.5
        },
        {
          "id": 1,
          "value": 0.5
        },
        {
          "id": 2,
          "value": 0.0
        },
        {
          "id": 3,
          "value": 0.0
        },
        {
          "id": 4,
          "value": 0.0
        }
      ],
      "leftModuleId": 75,
      "rightModuleId": 39,
      "pos": [
        86,
        2
      ]
    },
    {
      "id": 60,
      "plugin": "Bogaudio",
      "version": "1.1.21",
      "model": "Bogaudio-Reftone",
      "params": [
        {
          "id": 0,
          "value": 2.0
        },
        {
          "id": 1,
          "value": 5.0
        },
        {
          "id": 2,
          "value": 0.0
        }
      ],
      "rightModuleId": 41,
      "pos": [
        107,
        2
      ]
    },
    {
      "id": 66,
      "plugin": "Fundamental",
      "version": "1.1.1",
      "model": "VCA-1",
      "params": [
        {
          "id": 0,
          "value": 0.83649981
        },
        {
          "id": 1,
          "value": 1.0
        }
      ],
      "leftModuleId": 28,
      "pos": [
        21,
        2
      ]
    },
    {
      "id": 67,
      "plugin": "Fundamental",
      "version": "1.1.1",
      "model": "VCA-1",
      "params": [
        {
          "id": 0,
          "value": 0.989499927
        },
        {
          "id": 1,
          "value": 1.0
        }
      ],
      "leftModuleId": 33,
      "pos": [
        48,
        2
      ]
    },
    {
      "id": 68,
      "plugin": "Fundamental",
      "version": "1.1.1",
      "model": "VCA-1",
      "params": [
        {
          "id": 0,
          "value": 1.0
        },
        {
          "id": 1,
          "value": 1.0
        }
      ],
      "leftModuleId": 36,
      "pos": [
        75,
        2
      ]
    },
    {
      "id": 69,
      "plugin": "Fundamental",
      "version": "1.1.1",
      "model": "VCA-1",
      "params": [
        {
          "id": 0,
          "value": 1.0
        },
        {
          "id": 1,
          "value": 1.0
        }
      ],
      "leftModuleId": 39,
      "pos": [
        102,
        2
      ]
    },
    {
      "id": 70,
      "plugin": "Fundamental",
      "version": "1.1.1",
      "model": "VCA-1",
      "params": [
        {
          "id": 0,
          "value": 1.0
        },
        {
          "id": 1,
          "value": 1.0
        }
      ],
      "leftModuleId": 42,
      "pos": [
        126,
        2
      ]
    },
    {
      "id": 73,
      "plugin": "Bogaudio",
      "version": "1.1.21",
      "model": "Bogaudio-XFade",
      "params": [
        {
          "id": 0,
          "value": 0.0
        },
        {
          "id": 1,
          "value": 0.5
        },
        {
          "id": 2,
          "value": 0.0
        }
      ],
      "leftModuleId": 55,
      "rightModuleId": 29,
      "pos": [
        29,
        2
      ]
    },
    {
      "id": 35,
      "plugin": "Fundamental",
      "version": "1.1.1",
      "model": "VCF",
      "params": [
        {
          "id": 0,
          "value": 0.495500416
        },
        {
          "id": 1,
          "value": 0.5
        },
        {
          "id": 2,
          "value": 0.0
        },
        {
          "id": 3,
          "value": 0.0
        },
        {
          "id": 4,
          "value": 0.0
        }
      ],
      "leftModuleId": 74,
      "rightModuleId": 36,
      "pos": [
        59,
        2
      ]
    },
    {
      "id": 74,
      "plugin": "Bogaudio",
      "version": "1.1.21",
      "model": "Bogaudio-XFade",
      "params": [
        {
          "id": 0,
          "value": 0.0
        },
        {
          "id": 1,
          "value": 0.5
        },
        {
          "id": 2,
          "value": 0.0
        }
      ],
      "leftModuleId": 56,
      "rightModuleId": 35,
      "pos": [
        56,
        2
      ]
    },
    {
      "id": 75,
      "plugin": "Bogaudio",
      "version": "1.1.21",
      "model": "Bogaudio-XFade",
      "params": [
        {
          "id": 0,
          "value": 0.0
        },
        {
          "id": 1,
          "value": 0.5
        },
        {
          "id": 2,
          "value": 0.0
        }
      ],
      "leftModuleId": 57,
      "rightModuleId": 59,
      "pos": [
        83,
        2
      ]
    },
    {
      "id": 71,
      "plugin": "Bogaudio",
      "version": "1.1.21",
      "model": "Bogaudio-Mix8",
      "params": [
        {
          "id": 0,
          "value": 1.0
        },
        {
          "id": 1,
          "value": 0.0
        },
        {
          "id": 2,
          "value": 0.0
        },
        {
          "id": 3,
          "value": 1.0
        },
        {
          "id": 4,
          "value": 0.0
        },
        {
          "id": 5,
          "value": 0.0
        },
        {
          "id": 6,
          "value": 1.0
        },
        {
          "id": 7,
          "value": 0.0
        },
        {
          "id": 8,
          "value": 0.0
        },
        {
          "id": 9,
          "value": 1.0
        },
        {
          "id": 10,
          "value": 0.0
        },
        {
          "id": 11,
          "value": 0.0
        },
        {
          "id": 12,
          "value": 1.0
        },
        {
          "id": 13,
          "value": 0.0
        },
        {
          "id": 14,
          "value": 0.0
        },
        {
          "id": 15,
          "value": 0.909090936
        },
        {
          "id": 16,
          "value": 1.0
        },
        {
          "id": 17,
          "value": 0.0
        },
        {
          "id": 18,
          "value": 0.909090936
        },
        {
          "id": 19,
          "value": 1.0
        },
        {
          "id": 20,
          "value": 0.0
        },
        {
          "id": 21,
          "value": 0.909090936
        },
        {
          "id": 22,
          "value": 1.0
        },
        {
          "id": 23,
          "value": 0.0
        },
        {
          "id": 24,
          "value": 1.0
        },
        {
          "id": 25,
          "value": 0.0
        }
      ],
      "leftModuleId": 24,
      "rightModuleId": 102,
      "pos": [
        22,
        1
      ]
    },
    {
      "id": 88,
      "plugin": "ML_modules",
      "version": "1.0.2",
      "model": "TrigSwitch",
      "params": [
        {
          "id": 0,
          "value": 0.0
        },
        {
          "id": 1,
          "value": 0.0
        },
        {
          "id": 2,
          "value": 0.0
        },
        {
          "id": 3,
          "value": 0.0
        },
        {
          "id": 4,
          "value": 0.0
        },
        {
          "id": 5,
          "value": 0.0
        },
        {
          "id": 6,
          "value": 0.0
        },
        {
          "id": 7,
          "value": 0.0
        },
        {
          "id": 8,
          "value": 0.0
        }
      ],
      "leftModuleId": 97,
      "data": {
        "position": 1
      },
      "pos": [
        30,
        0
      ]
    },
    {
      "id": 72,
      "plugin": "Core",
      "version": "1.1.3",
      "model": "AudioInterface",
      "params": [],
      "leftModuleId": 113,
      "data": {
        "audio": {
          "driver": 8,
          "deviceName": "Speakers (Conexant SmartAudio HD)",
          "offset": 0,
          "maxChannels": 8,
          "sampleRate": 48000,
          "blockSize": 256
        }
      },
      "pos": [
        82,
        0
      ]
    },
    {
      "id": 27,
      "plugin": "Fundamental",
      "version": "1.1.1",
      "model": "VCF",
      "params": [
        {
          "id": 0,
          "value": 0.5
        },
        {
          "id": 1,
          "value": 0.5
        },
        {
          "id": 2,
          "value": 0.0
        },
        {
          "id": 3,
          "value": 0.0
        },
        {
          "id": 4,
          "value": 0.0
        }
      ],
      "leftModuleId": 54,
      "rightModuleId": 28,
      "pos": [
        5,
        2
      ]
    },
    {
      "id": 102,
      "plugin": "ML_modules",
      "version": "1.0.2",
      "model": "FreeVerb",
      "params": [
        {
          "id": 0,
          "value": 0.613000274
        },
        {
          "id": 1,
          "value": 0.618499458
        },
        {
          "id": 2,
          "value": 0.0
        }
      ],
      "leftModuleId": 71,
      "rightModuleId": 106,
      "pos": [
        49,
        1
      ]
    },
    {
      "id": 106,
      "plugin": "cf",
      "version": "1.1.0",
      "model": "DISTO",
      "params": [
        {
          "id": 0,
          "value": 4.49499798
        },
        {
          "id": 1,
          "value": 2.29999423
        }
      ],
      "leftModuleId": 102,
      "rightModuleId": 164,
      "pos": [
        55,
        1
      ]
    },
    {
      "id": 97,
      "plugin": "Core",
      "version": "1.1.3",
      "model": "MIDICCToCVInterface",
      "params": [],
      "rightModuleId": 88,
      "data": {
        "ccs": [
          0,
          1,
          2,
          3,
          4,
          5,
          6,
          7,
          8,
          9,
          10,
          11,
          12,
          13,
          14,
          15
        ],
        "values": [
          0,
          0,
          127,
          0,
          73,
          0,
          0,
          0,
          0,
          0,
          0,
          0,
          0,
          0,
          0,
          0,
          0,
          0,
          0,
          0,
          0,
          0,
          0,
          0,
          0,
          0,
          0,
          0,
          0,
          0,
          0,
          0,
          0,
          0,
          0,
          0,
          0,
          0,
          0,
          0,
          0,
          0,
          0,
          0,
          0,
          0,
          0,
          0,
          0,
          0,
          0,
          0,
          0,
          0,
          0,
          0,
          0,
          0,
          0,
          0,
          0,
          0,
          0,
          0,
          0,
          0,
          0,
          0,
          0,
          0,
          0,
          0,
          0,
          0,
          0,
          0,
          0,
          0,
          0,
          0,
          0,
          0,
          0,
          0,
          0,
          0,
          0,
          0,
          0,
          0,
          0,
          0,
          0,
          0,
          0,
          0,
          0,
          0,
          0,
          0,
          0,
          0,
          0,
          0,
          0,
          0,
          0,
          0,
          0,
          0,
          0,
          0,
          0,
          0,
          0,
          0,
          0,
          0,
          0,
          0,
          0,
          0,
          0,
          0,
          0,
          0,
          0,
          0
        ],
        "midi": {
          "driver": 4,
          "deviceName": "SparkFun Pro Micro 1",
          "channel": -1
        }
      },
      "pos": [
        20,
        0
      ]
    },
    {
      "id": 113,
      "plugin": "Fundamental",
      "version": "1.1.1",
      "model": "Scope",
      "params": [
        {
          "id": 0,
          "value": 5.0
        },
        {
          "id": 1,
          "value": 0.0
        },
        {
          "id": 2,
          "value": 0.0
        },
        {
          "id": 3,
          "value": 0.0
        },
        {
          "id": 4,
          "value": 10.1449938
        },
        {
          "id": 5,
          "value": 0.0
        },
        {
          "id": 6,
          "value": 0.060000211
        },
        {
          "id": 7,
          "value": 0.0
        }
      ],
      "rightModuleId": 72,
      "data": {
        "lissajous": 0,
        "external": 0
      },
      "pos": [
        69,
        0
      ]
    },
    {
      "id": 115,
      "plugin": "Fundamental",
      "version": "1.1.1",
      "model": "SEQ3",
      "params": [
        {
          "id": 0,
          "value": 3.16800046
        },
        {
          "id": 1,
          "value": 0.0
        },
        {
          "id": 2,
          "value": 0.0
        },
        {
          "id": 3,
          "value": 8.0
        },
        {
          "id": 4,
          "value": 0.0
        },
        {
          "id": 5,
          "value": 0.0
        },
        {
          "id": 6,
          "value": 0.0
        },
        {
          "id": 7,
          "value": 0.0
        },
        {
          "id": 8,
          "value": 0.0
        },
        {
          "id": 9,
          "value": 0.0
        },
        {
          "id": 10,
          "value": 0.0
        },
        {
          "id": 11,
          "value": 0.0
        },
        {
          "id": 12,
          "value": 0.0
        },
        {
          "id": 13,
          "value": 0.0
        },
        {
          "id": 14,
          "value": 0.0
        },
        {
          "id": 15,
          "value": 0.0
        },
        {
          "id": 16,
          "value": 0.0
        },
        {
          "id": 17,
          "value": 0.0
        },
        {
          "id": 18,
          "value": 0.0
        },
        {
          "id": 19,
          "value": 0.0
        },
        {
          "id": 20,
          "value": 0.0
        },
        {
          "id": 21,
          "value": 0.0
        },
        {
          "id": 22,
          "value": 0.0
        },
        {
          "id": 23,
          "value": 0.0
        },
        {
          "id": 24,
          "value": 0.0
        },
        {
          "id": 25,
          "value": 0.0
        },
        {
          "id": 26,
          "value": 0.0
        },
        {
          "id": 27,
          "value": 0.0
        },
        {
          "id": 28,
          "value": 0.0
        },
        {
          "id": 29,
          "value": 0.0
        },
        {
          "id": 30,
          "value": 0.0
        },
        {
          "id": 31,
          "value": 0.0
        },
        {
          "id": 32,
          "value": 0.0
        },
        {
          "id": 33,
          "value": 0.0
        },
        {
          "id": 34,
          "value": 0.0
        },
        {
          "id": 35,
          "value": 0.0
        }
      ],
      "rightModuleId": 116,
      "data": {
        "running": true,
        "gates": [
          1,
          1,
          1,
          1,
          1,
          1,
          1,
          1
        ]
      },
      "pos": [
        76,
        1
      ]
    },
    {
      "id": 116,
      "plugin": "Bogaudio",
      "version": "1.1.21",
      "model": "Bogaudio-Mix8",
      "params": [
        {
          "id": 0,
          "value": 1.0
        },
        {
          "id": 1,
          "value": 0.0
        },
        {
          "id": 2,
          "value": 0.0
        },
        {
          "id": 3,
          "value": 1.0
        },
        {
          "id": 4,
          "value": 0.0
        },
        {
          "id": 5,
          "value": 0.0
        },
        {
          "id": 6,
          "value": 1.0
        },
        {
          "id": 7,
          "value": 0.0
        },
        {
          "id": 8,
          "value": 0.0
        },
        {
          "id": 9,
          "value": 1.0
        },
        {
          "id": 10,
          "value": 0.0
        },
        {
          "id": 11,
          "value": 0.0
        },
        {
          "id": 12,
          "value": 1.0
        },
        {
          "id": 13,
          "value": 0.0
        },
        {
          "id": 14,
          "value": 0.0
        },
        {
          "id": 15,
          "value": 0.909090936
        },
        {
          "id": 16,
          "value": 1.0
        },
        {
          "id": 17,
          "value": 0.0
        },
        {
          "id": 18,
          "value": 0.909090936
        },
        {
          "id": 19,
          "value": 1.0
        },
        {
          "id": 20,
          "value": 0.0
        },
        {
          "id": 21,
          "value": 0.909090936
        },
        {
          "id": 22,
          "value": 1.0
        },
        {
          "id": 23,
          "value": 0.0
        },
        {
          "id": 24,
          "value": 1.0
        },
        {
          "id": 25,
          "value": 0.0
        }
      ],
      "leftModuleId": 115,
      "rightModuleId": 117,
      "pos": [
        98,
        1
      ]
    },
    {
      "id": 117,
      "plugin": "ML_modules",
      "version": "1.0.2",
      "model": "FreeVerb",
      "params": [
        {
          "id": 0,
          "value": 0.352000207
        },
        {
          "id": 1,
          "value": 0.618499458
        },
        {
          "id": 2,
          "value": 0.0
        }
      ],
      "leftModuleId": 116,
      "rightModuleId": 118,
      "pos": [
        125,
        1
      ]
    },
    {
      "id": 118,
      "plugin": "cf",
      "version": "1.1.0",
      "model": "DISTO",
      "params": [
        {
          "id": 0,
          "value": 4.49499798
        },
        {
          "id": 1,
          "value": 4.51999331
        }
      ],
      "leftModuleId": 117,
      "rightModuleId": 165,
      "pos": [
        131,
        1
      ]
    },
    {
      "id": 120,
      "plugin": "Bogaudio",
      "version": "1.1.21",
      "model": "Bogaudio-Reftone",
      "params": [
        {
          "id": 0,
          "value": 0.0
        },
        {
          "id": 1,
          "value": 3.0
        },
        {
          "id": 2,
          "value": 0.0
        }
      ],
      "rightModuleId": 121,
      "pos": [
        2,
        3
      ]
    },
    {
      "id": 121,
      "plugin": "Fundamental",
      "version": "1.1.1",
      "model": "VCF",
      "params": [
        {
          "id": 0,
          "value": 0.5
        },
        {
          "id": 1,
          "value": 0.5
        },
        {
          "id": 2,
          "value": 0.0
        },
        {
          "id": 3,
          "value": 0.0
        },
        {
          "id": 4,
          "value": 0.0
        }
      ],
      "leftModuleId": 120,
      "rightModuleId": 122,
      "pos": [
        5,
        3
      ]
    },
    {
      "id": 122,
      "plugin": "Fundamental",
      "version": "1.1.1",
      "model": "ADSR",
      "params": [
        {
          "id": 0,
          "value": 0.650000274
        },
        {
          "id": 1,
          "value": 0.5
        },
        {
          "id": 2,
          "value": 0.5
        },
        {
          "id": 3,
          "value": 0.5
        }
      ],
      "leftModuleId": 121,
      "rightModuleId": 123,
      "pos": [
        13,
        3
      ]
    },
    {
      "id": 123,
      "plugin": "Fundamental",
      "version": "1.1.1",
      "model": "VCA-1",
      "params": [
        {
          "id": 0,
          "value": 0.83649981
        },
        {
          "id": 1,
          "value": 1.0
        }
      ],
      "leftModuleId": 122,
      "pos": [
        21,
        3
      ]
    },
    {
      "id": 124,
      "plugin": "Bogaudio",
      "version": "1.1.21",
      "model": "Bogaudio-Reftone",
      "params": [
        {
          "id": 0,
          "value": 3.0
        },
        {
          "id": 1,
          "value": 5.0
        },
        {
          "id": 2,
          "value": 0.0
        }
      ],
      "rightModuleId": 125,
      "pos": [
        26,
        3
      ]
    },
    {
      "id": 125,
      "plugin": "Bogaudio",
      "version": "1.1.21",
      "model": "Bogaudio-XFade",
      "params": [
        {
          "id": 0,
          "value": 0.0
        },
        {
          "id": 1,
          "value": 0.5
        },
        {
          "id": 2,
          "value": 0.0
        }
      ],
      "leftModuleId": 124,
      "rightModuleId": 126,
      "pos": [
        29,
        3
      ]
    },
    {
      "id": 126,
      "plugin": "Fundamental",
      "version": "1.1.1",
      "model": "VCF",
      "params": [
        {
          "id": 0,
          "value": 0.513500154
        },
        {
          "id": 1,
          "value": 0.5
        },
        {
          "id": 2,
          "value": 0.0
        },
        {
          "id": 3,
          "value": 0.0
        },
        {
          "id": 4,
          "value": 0.000999885611
        }
      ],
      "leftModuleId": 125,
      "rightModuleId": 127,
      "pos": [
        32,
        3
      ]
    },
    {
      "id": 127,
      "plugin": "Fundamental",
      "version": "1.1.1",
      "model": "ADSR",
      "params": [
        {
          "id": 0,
          "value": 0.666499972
        },
        {
          "id": 1,
          "value": 0.5
        },
        {
          "id": 2,
          "value": 0.5
        },
        {
          "id": 3,
          "value": 0.5
        }
      ],
      "leftModuleId": 126,
      "rightModuleId": 128,
      "pos": [
        40,
        3
      ]
    },
    {
      "id": 128,
      "plugin": "Fundamental",
      "version": "1.1.1",
      "model": "VCA-1",
      "params": [
        {
          "id": 0,
          "value": 0.989499927
        },
        {
          "id": 1,
          "value": 1.0
        }
      ],
      "leftModuleId": 127,
      "pos": [
        48,
        3
      ]
    },
    {
      "id": 129,
      "plugin": "Bogaudio",
      "version": "1.1.21",
      "model": "Bogaudio-Reftone",
      "params": [
        {
          "id": 0,
          "value": 7.0
        },
        {
          "id": 1,
          "value": 5.0
        },
        {
          "id": 2,
          "value": 0.0
        }
      ],
      "rightModuleId": 130,
      "pos": [
        53,
        3
      ]
    },
    {
      "id": 130,
      "plugin": "Bogaudio",
      "version": "1.1.21",
      "model": "Bogaudio-XFade",
      "params": [
        {
          "id": 0,
          "value": 0.0
        },
        {
          "id": 1,
          "value": 0.5
        },
        {
          "id": 2,
          "value": 0.0
        }
      ],
      "leftModuleId": 129,
      "rightModuleId": 131,
      "pos": [
        56,
        3
      ]
    },
    {
      "id": 131,
      "plugin": "Fundamental",
      "version": "1.1.1",
      "model": "VCF",
      "params": [
        {
          "id": 0,
          "value": 0.495500416
        },
        {
          "id": 1,
          "value": 0.5
        },
        {
          "id": 2,
          "value": 0.0
        },
        {
          "id": 3,
          "value": 0.0
        },
        {
          "id": 4,
          "value": 0.0
        }
      ],
      "leftModuleId": 130,
      "rightModuleId": 132,
      "pos": [
        59,
        3
      ]
    },
    {
      "id": 132,
      "plugin": "Fundamental",
      "version": "1.1.1",
      "model": "ADSR",
      "params": [
        {
          "id": 0,
          "value": 0.593000114
        },
        {
          "id": 1,
          "value": 0.5
        },
        {
          "id": 2,
          "value": 0.5
        },
        {
          "id": 3,
          "value": 0.5
        }
      ],
      "leftModuleId": 131,
      "rightModuleId": 133,
      "pos": [
        67,
        3
      ]
    },
    {
      "id": 133,
      "plugin": "Fundamental",
      "version": "1.1.1",
      "model": "VCA-1",
      "params": [
        {
          "id": 0,
          "value": 1.0
        },
        {
          "id": 1,
          "value": 1.0
        }
      ],
      "leftModuleId": 132,
      "pos": [
        75,
        3
      ]
    },
    {
      "id": 134,
      "plugin": "Bogaudio",
      "version": "1.1.21",
      "model": "Bogaudio-Reftone",
      "params": [
        {
          "id": 0,
          "value": 10.0
        },
        {
          "id": 1,
          "value": 5.0
        },
        {
          "id": 2,
          "value": 0.0
        }
      ],
      "rightModuleId": 135,
      "pos": [
        80,
        3
      ]
    },
    {
      "id": 135,
      "plugin": "Bogaudio",
      "version": "1.1.21",
      "model": "Bogaudio-XFade",
      "params": [
        {
          "id": 0,
          "value": 0.0
        },
        {
          "id": 1,
          "value": 0.5
        },
        {
          "id": 2,
          "value": 0.0
        }
      ],
      "leftModuleId": 134,
      "rightModuleId": 136,
      "pos": [
        83,
        3
      ]
    },
    {
      "id": 136,
      "plugin": "Fundamental",
      "version": "1.1.1",
      "model": "VCF",
      "params": [
        {
          "id": 0,
          "value": 0.5
        },
        {
          "id": 1,
          "value": 0.5
        },
        {
          "id": 2,
          "value": 0.0
        },
        {
          "id": 3,
          "value": 0.0
        },
        {
          "id": 4,
          "value": 0.0
        }
      ],
      "leftModuleId": 135,
      "rightModuleId": 137,
      "pos": [
        86,
        3
      ]
    },
    {
      "id": 137,
      "plugin": "Fundamental",
      "version": "1.1.1",
      "model": "ADSR",
      "params": [
        {
          "id": 0,
          "value": 0.515000045
        },
        {
          "id": 1,
          "value": 0.5
        },
        {
          "id": 2,
          "value": 0.5
        },
        {
          "id": 3,
          "value": 0.49849999
        }
      ],
      "leftModuleId": 136,
      "rightModuleId": 138,
      "pos": [
        94,
        3
      ]
    },
    {
      "id": 138,
      "plugin": "Fundamental",
      "version": "1.1.1",
      "model": "VCA-1",
      "params": [
        {
          "id": 0,
          "value": 1.0
        },
        {
          "id": 1,
          "value": 1.0
        }
      ],
      "leftModuleId": 137,
      "pos": [
        102,
        3
      ]
    },
    {
      "id": 139,
      "plugin": "Bogaudio",
      "version": "1.1.21",
      "model": "Bogaudio-Reftone",
      "params": [
        {
          "id": 0,
          "value": 0.0
        },
        {
          "id": 1,
          "value": 5.0
        },
        {
          "id": 2,
          "value": 0.0
        }
      ],
      "rightModuleId": 140,
      "pos": [
        107,
        3
      ]
    },
    {
      "id": 140,
      "plugin": "Fundamental",
      "version": "1.1.1",
      "model": "VCF",
      "params": [
        {
          "id": 0,
          "value": 0.5
        },
        {
          "id": 1,
          "value": 0.5
        },
        {
          "id": 2,
          "value": 0.0
        },
        {
          "id": 3,
          "value": 0.0
        },
        {
          "id": 4,
          "value": 0.0
        }
      ],
      "leftModuleId": 139,
      "rightModuleId": 141,
      "pos": [
        110,
        3
      ]
    },
    {
      "id": 141,
      "plugin": "Fundamental",
      "version": "1.1.1",
      "model": "ADSR",
      "params": [
        {
          "id": 0,
          "value": 0.686500013
        },
        {
          "id": 1,
          "value": 0.5
        },
        {
          "id": 2,
          "value": 0.5
        },
        {
          "id": 3,
          "value": 0.5
        }
      ],
      "leftModuleId": 140,
      "rightModuleId": 142,
      "pos": [
        118,
        3
      ]
    },
    {
      "id": 142,
      "plugin": "Fundamental",
      "version": "1.1.1",
      "model": "VCA-1",
      "params": [
        {
          "id": 0,
          "value": 1.0
        },
        {
          "id": 1,
          "value": 1.0
        }
      ],
      "leftModuleId": 141,
      "pos": [
        126,
        3
      ]
    },
    {
      "id": 144,
      "plugin": "JW-Modules",
      "version": "1.0.7",
      "model": "SimpleClock",
      "params": [
        {
          "id": 0,
          "value": 2.51200056
        },
        {
          "id": 1,
          "value": 0.0
        },
        {
          "id": 2,
          "value": -2.0
        },
        {
          "id": 3,
          "value": 0.0
        }
      ],
      "data": {
        "running": true
      },
      "pos": [
        11,
        0
      ]
    },
    {
      "id": 158,
      "plugin": "Bogaudio",
      "version": "1.1.21",
      "model": "Bogaudio-UMix",
      "params": [
        {
          "id": 0,
          "value": 1.0
        }
      ],
      "leftModuleId": 163,
      "data": {
        "sum": true,
        "cv_mode": false
      },
      "pos": [
        62,
        0
      ]
    },
    {
      "id": 160,
      "plugin": "Core",
      "version": "1.1.3",
      "model": "MIDIToCVInterface",
      "params": [],
      "rightModuleId": 161,
      "data": {
        "channels": 1,
        "polyMode": 0,
        "clockDivision": 24,
        "lastPitch": 8192,
        "lastMod": 0,
        "midi": {
          "driver": 4,
          "deviceName": "SparkFun Pro Micro 1",
          "channel": -1
        }
      },
      "pos": [
        101,
        0
      ]
    },
    {
      "id": 161,
      "plugin": "Fundamental",
      "version": "1.1.1",
      "model": "VCO",
      "params": [
        {
          "id": 0,
          "value": 1.0
        },
        {
          "id": 1,
          "value": 1.0
        },
        {
          "id": 2,
          "value": 0.0
        },
        {
          "id": 3,
          "value": 0.0
        },
        {
          "id": 4,
          "value": 0.0
        },
        {
          "id": 5,
          "value": 0.5
        },
        {
          "id": 6,
          "value": 0.0
        }
      ],
      "leftModuleId": 160,
      "rightModuleId": 166,
      "pos": [
        109,
        0
      ]
    },
    {
      "id": 162,
      "plugin": "Fundamental",
      "version": "1.1.1",
      "model": "Scope",
      "params": [
        {
          "id": 0,
          "value": 0.0
        },
        {
          "id": 1,
          "value": 0.0
        },
        {
          "id": 2,
          "value": 4.0
        },
        {
          "id": 3,
          "value": 0.0
        },
        {
          "id": 4,
          "value": 14.0
        },
        {
          "id": 5,
          "value": 0.0
        },
        {
          "id": 6,
          "value": 0.0
        },
        {
          "id": 7,
          "value": 0.0
        }
      ],
      "data": {
        "lissajous": 0,
        "external": 0
      },
      "pos": [
        132,
        0
      ]
    },
    {
      "id": 163,
      "plugin": "Fundamental",
      "version": "1.1.1",
      "model": "Mutes",
      "params": [
        {
          "id": 0,
          "value": 0.0
        },
        {
          "id": 1,
          "value": 0.0
        },
        {
          "id": 2,
          "value": 0.0
        },
        {
          "id": 3,
          "value": 0.0
        },
        {
          "id": 4,
          "value": 0.0
        },
        {
          "id": 5,
          "value": 0.0
        },
        {
          "id": 6,
          "value": 0.0
        },
        {
          "id": 7,
          "value": 0.0
        },
        {
          "id": 8,
          "value": 0.0
        },
        {
          "id": 9,
          "value": 0.0
        }
      ],
      "rightModuleId": 158,
      "data": {
        "states": [
          false,
          false,
          false,
          false,
          false,
          false,
          false,
          false,
          false,
          false
        ]
      },
      "pos": [
        54,
        0
      ]
    },
    {
      "id": 164,
      "plugin": "Bogaudio",
      "version": "1.1.21",
      "model": "Bogaudio-UMix",
      "params": [
        {
          "id": 0,
          "value": 1.0
        }
      ],
      "leftModuleId": 106,
      "data": {
        "sum": true,
        "cv_mode": false
      },
      "pos": [
        63,
        1
      ]
    },
    {
      "id": 165,
      "plugin": "Bogaudio",
      "version": "1.1.21",
      "model": "Bogaudio-UMix",
      "params": [
        {
          "id": 0,
          "value": 1.0
        }
      ],
      "leftModuleId": 118,
      "data": {
        "sum": true,
        "cv_mode": false
      },
      "pos": [
        139,
        1
      ]
    },
    {
      "id": 166,
      "plugin": "Bogaudio",
      "version": "1.1.21",
      "model": "Bogaudio-UMix",
      "params": [
        {
          "id": 0,
          "value": 0.031000182
        }
      ],
      "leftModuleId": 161,
      "rightModuleId": 169,
      "data": {
        "sum": true,
        "cv_mode": false
      },
      "pos": [
        119,
        0
      ]
    },
    {
      "id": 169,
      "plugin": "Bogaudio",
      "version": "1.1.21",
      "model": "Bogaudio-SampleHold",
      "params": [
        {
          "id": 0,
          "value": 0.0
        },
        {
          "id": 1,
          "value": 0.0
        },
        {
          "id": 2,
          "value": 1.0
        },
        {
          "id": 3,
          "value": 0.0
        }
      ],
      "leftModuleId": 166,
      "pos": [
        122,
        0
      ]
    }
  ],
  "cables": [
    {
      "id": 100,
      "outputModuleId": 33,
      "outputId": 0,
      "inputModuleId": 29,
      "inputId": 0,
      "color": "#0986ad"
    },
    {
      "id": 116,
      "outputModuleId": 42,
      "outputId": 0,
      "inputModuleId": 41,
      "inputId": 0,
      "color": "#0c8e15"
    },
    {
      "id": 121,
      "outputModuleId": 24,
      "outputId": 8,
      "inputModuleId": 42,
      "inputId": 4,
      "color": "#0986ad"
    },
    {
      "id": 122,
      "outputModuleId": 24,
      "outputId": 8,
      "inputModuleId": 42,
      "inputId": 5,
      "color": "#c9b70e"
    },
    {
      "id": 124,
      "outputModuleId": 24,
      "outputId": 4,
      "inputModuleId": 28,
      "inputId": 4,
      "color": "#c9b70e"
    },
    {
      "id": 125,
      "outputModuleId": 24,
      "outputId": 4,
      "inputModuleId": 28,
      "inputId": 5,
      "color": "#0c8e15"
    },
    {
      "id": 161,
      "outputModuleId": 55,
      "outputId": 1,
      "inputModuleId": 29,
      "inputId": 3,
      "color": "#0986ad"
    },
    {
      "id": 163,
      "outputModuleId": 57,
      "outputId": 1,
      "inputModuleId": 59,
      "inputId": 3,
      "color": "#0c8e15"
    },
    {
      "id": 165,
      "outputModuleId": 39,
      "outputId": 0,
      "inputModuleId": 59,
      "inputId": 0,
      "color": "#0986ad"
    },
    {
      "id": 167,
      "outputModuleId": 60,
      "outputId": 1,
      "inputModuleId": 41,
      "inputId": 3,
      "color": "#0c8e15"
    },
    {
      "id": 95,
      "outputModuleId": 28,
      "outputId": 0,
      "inputModuleId": 66,
      "inputId": 0,
      "color": "#c91847"
    },
    {
      "id": 175,
      "outputModuleId": 33,
      "outputId": 0,
      "inputModuleId": 67,
      "inputId": 0,
      "color": "#0c8e15"
    },
    {
      "id": 176,
      "outputModuleId": 29,
      "outputId": 0,
      "inputModuleId": 67,
      "inputId": 1,
      "color": "#c91847"
    },
    {
      "id": 178,
      "outputModuleId": 36,
      "outputId": 0,
      "inputModuleId": 68,
      "inputId": 0,
      "color": "#0c8e15"
    },
    {
      "id": 179,
      "outputModuleId": 59,
      "outputId": 0,
      "inputModuleId": 69,
      "inputId": 1,
      "color": "#c91847"
    },
    {
      "id": 180,
      "outputModuleId": 39,
      "outputId": 0,
      "inputModuleId": 69,
      "inputId": 0,
      "color": "#0986ad"
    },
    {
      "id": 181,
      "outputModuleId": 42,
      "outputId": 0,
      "inputModuleId": 70,
      "inputId": 0,
      "color": "#c9b70e"
    },
    {
      "id": 182,
      "outputModuleId": 41,
      "outputId": 0,
      "inputModuleId": 70,
      "inputId": 1,
      "color": "#0c8e15"
    },
    {
      "id": 190,
      "outputModuleId": 24,
      "outputId": 11,
      "inputModuleId": 73,
      "inputId": 1,
      "color": "#0c8e15"
    },
    {
      "id": 191,
      "outputModuleId": 24,
      "outputId": 5,
      "inputModuleId": 73,
      "inputId": 2,
      "color": "#c91847"
    },
    {
      "id": 192,
      "outputModuleId": 73,
      "outputId": 0,
      "inputModuleId": 33,
      "inputId": 4,
      "color": "#0986ad"
    },
    {
      "id": 193,
      "outputModuleId": 73,
      "outputId": 0,
      "inputModuleId": 33,
      "inputId": 5,
      "color": "#c9b70e"
    },
    {
      "id": 162,
      "outputModuleId": 56,
      "outputId": 1,
      "inputModuleId": 35,
      "inputId": 3,
      "color": "#c9b70e"
    },
    {
      "id": 102,
      "outputModuleId": 36,
      "outputId": 0,
      "inputModuleId": 35,
      "inputId": 0,
      "color": "#0c8e15"
    },
    {
      "id": 177,
      "outputModuleId": 35,
      "outputId": 0,
      "inputModuleId": 68,
      "inputId": 1,
      "color": "#c9b70e"
    },
    {
      "id": 194,
      "outputModuleId": 24,
      "outputId": 10,
      "inputModuleId": 74,
      "inputId": 2,
      "color": "#0986ad"
    },
    {
      "id": 195,
      "outputModuleId": 24,
      "outputId": 6,
      "inputModuleId": 74,
      "inputId": 1,
      "color": "#c9b70e"
    },
    {
      "id": 196,
      "outputModuleId": 74,
      "outputId": 0,
      "inputModuleId": 36,
      "inputId": 4,
      "color": "#0986ad"
    },
    {
      "id": 197,
      "outputModuleId": 74,
      "outputId": 0,
      "inputModuleId": 36,
      "inputId": 5,
      "color": "#c9b70e"
    },
    {
      "id": 198,
      "outputModuleId": 24,
      "outputId": 7,
      "inputModuleId": 75,
      "inputId": 1,
      "color": "#0c8e15"
    },
    {
      "id": 199,
      "outputModuleId": 24,
      "outputId": 9,
      "inputModuleId": 75,
      "inputId": 2,
      "color": "#c91847"
    },
    {
      "id": 200,
      "outputModuleId": 75,
      "outputId": 0,
      "inputModuleId": 39,
      "inputId": 4,
      "color": "#0986ad"
    },
    {
      "id": 201,
      "outputModuleId": 75,
      "outputId": 0,
      "inputModuleId": 39,
      "inputId": 5,
      "color": "#c9b70e"
    },
    {
      "id": 187,
      "outputModuleId": 70,
      "outputId": 0,
      "inputModuleId": 71,
      "inputId": 14,
      "color": "#c91847"
    },
    {
      "id": 186,
      "outputModuleId": 69,
      "outputId": 0,
      "inputModuleId": 71,
      "inputId": 11,
      "color": "#0c8e15"
    },
    {
      "id": 185,
      "outputModuleId": 68,
      "outputId": 0,
      "inputModuleId": 71,
      "inputId": 8,
      "color": "#c9b70e"
    },
    {
      "id": 184,
      "outputModuleId": 67,
      "outputId": 0,
      "inputModuleId": 71,
      "inputId": 5,
      "color": "#0986ad"
    },
    {
      "id": 183,
      "outputModuleId": 66,
      "outputId": 0,
      "inputModuleId": 71,
      "inputId": 2,
      "color": "#c91847"
    },
    {
      "id": 160,
      "outputModuleId": 54,
      "outputId": 1,
      "inputModuleId": 27,
      "inputId": 3,
      "color": "#c91847"
    },
    {
      "id": 90,
      "outputModuleId": 28,
      "outputId": 0,
      "inputModuleId": 27,
      "inputId": 0,
      "color": "#0c8e15"
    },
    {
      "id": 96,
      "outputModuleId": 27,
      "outputId": 0,
      "inputModuleId": 66,
      "inputId": 1,
      "color": "#0986ad"
    },
    {
      "id": 307,
      "outputModuleId": 71,
      "outputId": 1,
      "inputModuleId": 102,
      "inputId": 0,
      "color": "#0986ad"
    },
    {
      "id": 309,
      "outputModuleId": 102,
      "outputId": 1,
      "inputModuleId": 106,
      "inputId": 0,
      "color": "#0c8e15"
    },
    {
      "id": 332,
      "outputModuleId": 97,
      "outputId": 0,
      "inputModuleId": 88,
      "inputId": 7,
      "color": "#c91847"
    },
    {
      "id": 333,
      "outputModuleId": 97,
      "outputId": 1,
      "inputModuleId": 88,
      "inputId": 0,
      "color": "#0986ad"
    },
    {
      "id": 334,
      "outputModuleId": 97,
      "outputId": 2,
      "inputModuleId": 88,
      "inputId": 1,
      "color": "#c9b70e"
    },
    {
      "id": 335,
      "outputModuleId": 97,
      "outputId": 3,
      "inputModuleId": 88,
      "inputId": 2,
      "color": "#0c8e15"
    },
    {
      "id": 338,
      "outputModuleId": 116,
      "outputId": 1,
      "inputModuleId": 117,
      "inputId": 0,
      "color": "#c9b70e"
    },
    {
      "id": 339,
      "outputModuleId": 115,
      "outputId": 4,
      "inputModuleId": 122,
      "inputId": 4,
      "color": "#0c8e15"
    },
    {
      "id": 340,
      "outputModuleId": 115,
      "outputId": 4,
      "inputModuleId": 122,
      "inputId": 5,
      "color": "#c91847"
    },
    {
      "id": 347,
      "outputModuleId": 115,
      "outputId": 8,
      "inputModuleId": 141,
      "inputId": 4,
      "color": "#0c8e15"
    },
    {
      "id": 348,
      "outputModuleId": 115,
      "outputId": 8,
      "inputModuleId": 141,
      "inputId": 5,
      "color": "#c91847"
    },
    {
      "id": 341,
      "outputModuleId": 115,
      "outputId": 5,
      "inputModuleId": 125,
      "inputId": 1,
      "color": "#0986ad"
    },
    {
      "id": 349,
      "outputModuleId": 125,
      "outputId": 0,
      "inputModuleId": 127,
      "inputId": 4,
      "color": "#c9b70e"
    },
    {
      "id": 350,
      "outputModuleId": 125,
      "outputId": 0,
      "inputModuleId": 127,
      "inputId": 5,
      "color": "#0c8e15"
    },
    {
      "id": 343,
      "outputModuleId": 115,
      "outputId": 6,
      "inputModuleId": 130,
      "inputId": 1,
      "color": "#0c8e15"
    },
    {
      "id": 351,
      "outputModuleId": 130,
      "outputId": 0,
      "inputModuleId": 132,
      "inputId": 4,
      "color": "#c91847"
    },
    {
      "id": 352,
      "outputModuleId": 130,
      "outputId": 0,
      "inputModuleId": 132,
      "inputId": 5,
      "color": "#0986ad"
    },
    {
      "id": 345,
      "outputModuleId": 115,
      "outputId": 7,
      "inputModuleId": 135,
      "inputId": 1,
      "color": "#0986ad"
    },
    {
      "id": 353,
      "outputModuleId": 135,
      "outputId": 0,
      "inputModuleId": 137,
      "inputId": 4,
      "color": "#c9b70e"
    },
    {
      "id": 354,
      "outputModuleId": 135,
      "outputId": 0,
      "inputModuleId": 137,
      "inputId": 5,
      "color": "#0c8e15"
    },
    {
      "id": 355,
      "outputModuleId": 115,
      "outputId": 9,
      "inputModuleId": 135,
      "inputId": 2,
      "color": "#c91847"
    },
    {
      "id": 356,
      "outputModuleId": 115,
      "outputId": 10,
      "inputModuleId": 130,
      "inputId": 2,
      "color": "#0986ad"
    },
    {
      "id": 357,
      "outputModuleId": 115,
      "outputId": 11,
      "inputModuleId": 125,
      "inputId": 2,
      "color": "#c9b70e"
    },
    {
      "id": 358,
      "outputModuleId": 120,
      "outputId": 1,
      "inputModuleId": 121,
      "inputId": 3,
      "color": "#0c8e15"
    },
    {
      "id": 359,
      "outputModuleId": 124,
      "outputId": 1,
      "inputModuleId": 126,
      "inputId": 3,
      "color": "#c91847"
    },
    {
      "id": 360,
      "outputModuleId": 129,
      "outputId": 1,
      "inputModuleId": 131,
      "inputId": 3,
      "color": "#0986ad"
    },
    {
      "id": 361,
      "outputModuleId": 134,
      "outputId": 1,
      "inputModuleId": 136,
      "inputId": 3,
      "color": "#0c8e15"
    },
    {
      "id": 362,
      "outputModuleId": 139,
      "outputId": 1,
      "inputModuleId": 140,
      "inputId": 3,
      "color": "#c91847"
    },
    {
      "id": 363,
      "outputModuleId": 122,
      "outputId": 0,
      "inputModuleId": 121,
      "inputId": 0,
      "color": "#0986ad"
    },
    {
      "id": 364,
      "outputModuleId": 127,
      "outputId": 0,
      "inputModuleId": 126,
      "inputId": 0,
      "color": "#c9b70e"
    },
    {
      "id": 365,
      "outputModuleId": 132,
      "outputId": 0,
      "inputModuleId": 131,
      "inputId": 0,
      "color": "#0c8e15"
    },
    {
      "id": 366,
      "outputModuleId": 137,
      "outputId": 0,
      "inputModuleId": 136,
      "inputId": 0,
      "color": "#c91847"
    },
    {
      "id": 367,
      "outputModuleId": 141,
      "outputId": 0,
      "inputModuleId": 140,
      "inputId": 0,
      "color": "#0986ad"
    },
    {
      "id": 368,
      "outputModuleId": 121,
      "outputId": 0,
      "inputModuleId": 123,
      "inputId": 1,
      "color": "#c9b70e"
    },
    {
      "id": 369,
      "outputModuleId": 126,
      "outputId": 0,
      "inputModuleId": 128,
      "inputId": 1,
      "color": "#0c8e15"
    },
    {
      "id": 370,
      "outputModuleId": 131,
      "outputId": 0,
      "inputModuleId": 133,
      "inputId": 1,
      "color": "#c91847"
    },
    {
      "id": 371,
      "outputModuleId": 136,
      "outputId": 0,
      "inputModuleId": 138,
      "inputId": 1,
      "color": "#0986ad"
    },
    {
      "id": 372,
      "outputModuleId": 140,
      "outputId": 0,
      "inputModuleId": 142,
      "inputId": 1,
      "color": "#c9b70e"
    },
    {
      "id": 373,
      "outputModuleId": 122,
      "outputId": 0,
      "inputModuleId": 123,
      "inputId": 0,
      "color": "#0c8e15"
    },
    {
      "id": 374,
      "outputModuleId": 127,
      "outputId": 0,
      "inputModuleId": 128,
      "inputId": 0,
      "color": "#c91847"
    },
    {
      "id": 375,
      "outputModuleId": 132,
      "outputId": 0,
      "inputModuleId": 133,
      "inputId": 0,
      "color": "#0986ad"
    },
    {
      "id": 376,
      "outputModuleId": 137,
      "outputId": 0,
      "inputModuleId": 138,
      "inputId": 0,
      "color": "#c9b70e"
    },
    {
      "id": 377,
      "outputModuleId": 141,
      "outputId": 0,
      "inputModuleId": 142,
      "inputId": 0,
      "color": "#0c8e15"
    },
    {
      "id": 378,
      "outputModuleId": 123,
      "outputId": 0,
      "inputModuleId": 116,
      "inputId": 2,
      "color": "#c91847"
    },
    {
      "id": 379,
      "outputModuleId": 128,
      "outputId": 0,
      "inputModuleId": 116,
      "inputId": 5,
      "color": "#0986ad"
    },
    {
      "id": 380,
      "outputModuleId": 133,
      "outputId": 0,
      "inputModuleId": 116,
      "inputId": 8,
      "color": "#c9b70e"
    },
    {
      "id": 381,
      "outputModuleId": 138,
      "outputId": 0,
      "inputModuleId": 116,
      "inputId": 11,
      "color": "#0c8e15"
    },
    {
      "id": 382,
      "outputModuleId": 142,
      "outputId": 0,
      "inputModuleId": 116,
      "inputId": 14,
      "color": "#c91847"
    },
    {
      "id": 384,
      "outputModuleId": 144,
      "outputId": 1,
      "inputModuleId": 24,
      "inputId": 2,
      "color": "#c9b70e"
    },
    {
      "id": 385,
      "outputModuleId": 144,
      "outputId": 1,
      "inputModuleId": 115,
      "inputId": 2,
      "color": "#0c8e15"
    },
    {
      "id": 386,
      "outputModuleId": 144,
      "outputId": 0,
      "inputModuleId": 24,
      "inputId": 1,
      "color": "#c91847"
    },
    {
      "id": 387,
      "outputModuleId": 144,
      "outputId": 0,
      "inputModuleId": 115,
      "inputId": 1,
      "color": "#0986ad"
    },
    {
      "id": 388,
      "outputModuleId": 117,
      "outputId": 1,
      "inputModuleId": 118,
      "inputId": 0,
      "color": "#c9b70e"
    },
    {
      "id": 418,
      "outputModuleId": 158,
      "outputId": 0,
      "inputModuleId": 72,
      "inputId": 0,
      "color": "#c91847"
    },
    {
      "id": 419,
      "outputModuleId": 158,
      "outputId": 0,
      "inputModuleId": 72,
      "inputId": 1,
      "color": "#0986ad"
    },
    {
      "id": 425,
      "outputModuleId": 158,
      "outputId": 0,
      "inputModuleId": 113,
      "inputId": 0,
      "color": "#c91847"
    },
    {
      "id": 427,
      "outputModuleId": 160,
      "outputId": 0,
      "inputModuleId": 161,
      "inputId": 0,
      "color": "#0c8e15"
    },
    {
      "id": 432,
      "outputModuleId": 163,
      "outputId": 0,
      "inputModuleId": 158,
      "inputId": 0,
      "color": "#0986ad"
    },
    {
      "id": 429,
      "outputModuleId": 161,
      "outputId": 0,
      "inputModuleId": 166,
      "inputId": 0,
      "color": "#c9b70e"
    },
    {
      "id": 440,
      "outputModuleId": 164,
      "outputId": 0,
      "inputModuleId": 88,
      "inputId": 8,
      "color": "#0986ad"
    },
    {
      "id": 441,
      "outputModuleId": 106,
      "outputId": 0,
      "inputModuleId": 164,
      "inputId": 0,
      "color": "#c9b70e"
    },
    {
      "id": 337,
      "outputModuleId": 118,
      "outputId": 0,
      "inputModuleId": 165,
      "inputId": 0,
      "color": "#0986ad"
    },
    {
      "id": 442,
      "outputModuleId": 165,
      "outputId": 0,
      "inputModuleId": 88,
      "inputId": 9,
      "color": "#0c8e15"
    },
    {
      "id": 431,
      "outputModuleId": 163,
      "outputId": 1,
      "inputModuleId": 158,
      "inputId": 1,
      "color": "#c91847"
    },
    {
      "id": 235,
      "outputModuleId": 88,
      "outputId": 0,
      "inputModuleId": 163,
      "inputId": 1,
      "color": "#c91847"
    },
    {
      "id": 455,
      "outputModuleId": 166,
      "outputId": 0,
      "inputModuleId": 162,
      "inputId": 0,
      "color": "#c9b70e"
    },
    {
      "id": 439,
      "outputModuleId": 166,
      "outputId": 0,
      "inputModuleId": 169,
      "inputId": 1,
      "color": "#0c8e15"
    },
    {
      "id": 453,
      "outputModuleId": 160,
      "outputId": 1,
      "inputModuleId": 169,
      "inputId": 0,
      "color": "#c91847"
    },
    {
      "id": 456,
      "outputModuleId": 169,
      "outputId": 0,
      "inputModuleId": 163,
      "inputId": 0,
      "color": "#0c8e15"
    },
    {
      "id": 454,
      "outputModuleId": 169,
      "outputId": 0,
      "inputModuleId": 162,
      "inputId": 1,
      "color": "#0986ad"
    }
  ]
}