{
  "version": "1.1.3",
  "modules": [
    {
      "id": 24,
      "plugin": "Fundamental",
      "version": "1.2.0",
      "model": "SEQ3",
      "params": [
        {
          "id": 0,
          "value": 3.16800046
        },
        {
          "id": 1,
          "value": 0.0
        },
        {
          "id": 2,
          "value": 0.0
        },
        {
          "id": 3,
          "value": 4.0
        },
        {
          "id": 4,
          "value": 0.0
        },
        {
          "id": 5,
          "value": 0.0
        },
        {
          "id": 6,
          "value": 0.0
        },
        {
          "id": 7,
          "value": 0.0
        },
        {
          "id": 8,
          "value": 0.0
        },
        {
          "id": 9,
          "value": 0.0
        },
        {
          "id": 10,
          "value": 0.0
        },
        {
          "id": 11,
          "value": 0.0
        },
        {
          "id": 12,
          "value": 0.0
        },
        {
          "id": 13,
          "value": 0.0
        },
        {
          "id": 14,
          "value": 0.0
        },
        {
          "id": 15,
          "value": 0.0
        },
        {
          "id": 16,
          "value": 0.0
        },
        {
          "id": 17,
          "value": 0.0
        },
        {
          "id": 18,
          "value": 0.0
        },
        {
          "id": 19,
          "value": 0.0
        },
        {
          "id": 20,
          "value": 0.0
        },
        {
          "id": 21,
          "value": 0.0
        },
        {
          "id": 22,
          "value": 0.0
        },
        {
          "id": 23,
          "value": 0.0
        },
        {
          "id": 24,
          "value": 0.0
        },
        {
          "id": 25,
          "value": 0.0
        },
        {
          "id": 26,
          "value": 0.0
        },
        {
          "id": 27,
          "value": 0.0
        },
        {
          "id": 28,
          "value": 0.0
        },
        {
          "id": 29,
          "value": 0.0
        },
        {
          "id": 30,
          "value": 0.0
        },
        {
          "id": 31,
          "value": 0.0
        },
        {
          "id": 32,
          "value": 0.0
        },
        {
          "id": 33,
          "value": 0.0
        },
        {
          "id": 34,
          "value": 0.0
        },
        {
          "id": 35,
          "value": 0.0
        }
      ],
      "rightModuleId": 71,
      "data": {
        "running": true,
        "gates": [
          1,
          1,
          1,
          1,
          1,
          1,
          1,
          1
        ]
      },
      "pos": [
        4,
        2
      ]
    },
    {
      "id": 28,
      "plugin": "Fundamental",
      "version": "1.2.0",
      "model": "ADSR",
      "params": [
        {
          "id": 0,
          "value": 0.566000342
        },
        {
          "id": 1,
          "value": 0.5
        },
        {
          "id": 2,
          "value": 0.5
        },
        {
          "id": 3,
          "value": 0.5
        }
      ],
      "leftModuleId": 27,
      "rightModuleId": 66,
      "pos": [
        17,
        3
      ]
    },
    {
      "id": 29,
      "plugin": "Fundamental",
      "version": "1.2.0",
      "model": "VCF",
      "params": [
        {
          "id": 0,
          "value": 0.513500154
        },
        {
          "id": 1,
          "value": 0.5
        },
        {
          "id": 2,
          "value": 0.0
        },
        {
          "id": 3,
          "value": 0.0
        },
        {
          "id": 4,
          "value": 0.504000008
        }
      ],
      "leftModuleId": 73,
      "rightModuleId": 33,
      "pos": [
        36,
        3
      ]
    },
    {
      "id": 33,
      "plugin": "Fundamental",
      "version": "1.2.0",
      "model": "ADSR",
      "params": [
        {
          "id": 0,
          "value": 0.57950002
        },
        {
          "id": 1,
          "value": 0.5
        },
        {
          "id": 2,
          "value": 0.5
        },
        {
          "id": 3,
          "value": 0.5
        }
      ],
      "leftModuleId": 29,
      "rightModuleId": 67,
      "pos": [
        44,
        3
      ]
    },
    {
      "id": 36,
      "plugin": "Fundamental",
      "version": "1.2.0",
      "model": "ADSR",
      "params": [
        {
          "id": 0,
          "value": 0.593000114
        },
        {
          "id": 1,
          "value": 0.5
        },
        {
          "id": 2,
          "value": 0.5
        },
        {
          "id": 3,
          "value": 0.5
        }
      ],
      "leftModuleId": 35,
      "rightModuleId": 68,
      "pos": [
        71,
        3
      ]
    },
    {
      "id": 39,
      "plugin": "Fundamental",
      "version": "1.2.0",
      "model": "ADSR",
      "params": [
        {
          "id": 0,
          "value": 0.590000093
        },
        {
          "id": 1,
          "value": 0.5
        },
        {
          "id": 2,
          "value": 0.5
        },
        {
          "id": 3,
          "value": 0.49849999
        }
      ],
      "leftModuleId": 59,
      "rightModuleId": 69,
      "pos": [
        98,
        3
      ]
    },
    {
      "id": 41,
      "plugin": "Fundamental",
      "version": "1.2.0",
      "model": "VCF",
      "params": [
        {
          "id": 0,
          "value": 0.5
        },
        {
          "id": 1,
          "value": 0.5
        },
        {
          "id": 2,
          "value": 0.0
        },
        {
          "id": 3,
          "value": 0.0
        },
        {
          "id": 4,
          "value": 0.504000008
        }
      ],
      "leftModuleId": 60,
      "rightModuleId": 42,
      "pos": [
        114,
        3
      ]
    },
    {
      "id": 42,
      "plugin": "Fundamental",
      "version": "1.2.0",
      "model": "ADSR",
      "params": [
        {
          "id": 0,
          "value": 0.608500004
        },
        {
          "id": 1,
          "value": 0.5
        },
        {
          "id": 2,
          "value": 0.5
        },
        {
          "id": 3,
          "value": 0.5
        }
      ],
      "leftModuleId": 41,
      "rightModuleId": 70,
      "pos": [
        122,
        3
      ]
    },
    {
      "id": 54,
      "plugin": "Bogaudio",
      "version": "1.1.21",
      "model": "Bogaudio-Reftone",
      "params": [
        {
          "id": 0,
          "value": 0.0
        },
        {
          "id": 1,
          "value": 2.0
        },
        {
          "id": 2,
          "value": 0.0
        }
      ],
      "rightModuleId": 27,
      "pos": [
        6,
        3
      ]
    },
    {
      "id": 55,
      "plugin": "Bogaudio",
      "version": "1.1.21",
      "model": "Bogaudio-Reftone",
      "params": [
        {
          "id": 0,
          "value": 2.0
        },
        {
          "id": 1,
          "value": 2.0
        },
        {
          "id": 2,
          "value": 0.0
        }
      ],
      "rightModuleId": 73,
      "pos": [
        30,
        3
      ]
    },
    {
      "id": 56,
      "plugin": "Bogaudio",
      "version": "1.1.21",
      "model": "Bogaudio-Reftone",
      "params": [
        {
          "id": 0,
          "value": 4.0
        },
        {
          "id": 1,
          "value": 2.0
        },
        {
          "id": 2,
          "value": 0.0
        }
      ],
      "rightModuleId": 74,
      "pos": [
        57,
        3
      ]
    },
    {
      "id": 57,
      "plugin": "Bogaudio",
      "version": "1.1.21",
      "model": "Bogaudio-Reftone",
      "params": [
        {
          "id": 0,
          "value": 5.0
        },
        {
          "id": 1,
          "value": 2.0
        },
        {
          "id": 2,
          "value": 0.0
        }
      ],
      "rightModuleId": 75,
      "pos": [
        84,
        3
      ]
    },
    {
      "id": 59,
      "plugin": "Fundamental",
      "version": "1.2.0",
      "model": "VCF",
      "params": [
        {
          "id": 0,
          "value": 0.5
        },
        {
          "id": 1,
          "value": 0.5
        },
        {
          "id": 2,
          "value": 0.0
        },
        {
          "id": 3,
          "value": 0.0
        },
        {
          "id": 4,
          "value": 0.504000008
        }
      ],
      "leftModuleId": 75,
      "rightModuleId": 39,
      "pos": [
        90,
        3
      ]
    },
    {
      "id": 60,
      "plugin": "Bogaudio",
      "version": "1.1.21",
      "model": "Bogaudio-Reftone",
      "params": [
        {
          "id": 0,
          "value": 4.0
        },
        {
          "id": 1,
          "value": 2.0
        },
        {
          "id": 2,
          "value": 0.0
        }
      ],
      "rightModuleId": 41,
      "pos": [
        111,
        3
      ]
    },
    {
      "id": 66,
      "plugin": "Fundamental",
      "version": "1.2.0",
      "model": "VCA-1",
      "params": [
        {
          "id": 0,
          "value": 0.83649981
        },
        {
          "id": 1,
          "value": 1.0
        }
      ],
      "leftModuleId": 28,
      "pos": [
        25,
        3
      ]
    },
    {
      "id": 67,
      "plugin": "Fundamental",
      "version": "1.2.0",
      "model": "VCA-1",
      "params": [
        {
          "id": 0,
          "value": 0.989499927
        },
        {
          "id": 1,
          "value": 1.0
        }
      ],
      "leftModuleId": 33,
      "pos": [
        52,
        3
      ]
    },
    {
      "id": 68,
      "plugin": "Fundamental",
      "version": "1.2.0",
      "model": "VCA-1",
      "params": [
        {
          "id": 0,
          "value": 1.0
        },
        {
          "id": 1,
          "value": 1.0
        }
      ],
      "leftModuleId": 36,
      "pos": [
        79,
        3
      ]
    },
    {
      "id": 69,
      "plugin": "Fundamental",
      "version": "1.2.0",
      "model": "VCA-1",
      "params": [
        {
          "id": 0,
          "value": 1.0
        },
        {
          "id": 1,
          "value": 1.0
        }
      ],
      "leftModuleId": 39,
      "pos": [
        106,
        3
      ]
    },
    {
      "id": 70,
      "plugin": "Fundamental",
      "version": "1.2.0",
      "model": "VCA-1",
      "params": [
        {
          "id": 0,
          "value": 1.0
        },
        {
          "id": 1,
          "value": 1.0
        }
      ],
      "leftModuleId": 42,
      "pos": [
        130,
        3
      ]
    },
    {
      "id": 73,
      "plugin": "Bogaudio",
      "version": "1.1.21",
      "model": "Bogaudio-XFade",
      "params": [
        {
          "id": 0,
          "value": 0.0
        },
        {
          "id": 1,
          "value": 0.5
        },
        {
          "id": 2,
          "value": 0.0
        }
      ],
      "leftModuleId": 55,
      "rightModuleId": 29,
      "pos": [
        33,
        3
      ]
    },
    {
      "id": 35,
      "plugin": "Fundamental",
      "version": "1.2.0",
      "model": "VCF",
      "params": [
        {
          "id": 0,
          "value": 0.495500416
        },
        {
          "id": 1,
          "value": 0.5
        },
        {
          "id": 2,
          "value": 0.0
        },
        {
          "id": 3,
          "value": 0.0
        },
        {
          "id": 4,
          "value": 0.504000008
        }
      ],
      "leftModuleId": 74,
      "rightModuleId": 36,
      "pos": [
        63,
        3
      ]
    },
    {
      "id": 74,
      "plugin": "Bogaudio",
      "version": "1.1.21",
      "model": "Bogaudio-XFade",
      "params": [
        {
          "id": 0,
          "value": 0.0
        },
        {
          "id": 1,
          "value": 0.5
        },
        {
          "id": 2,
          "value": 0.0
        }
      ],
      "leftModuleId": 56,
      "rightModuleId": 35,
      "pos": [
        60,
        3
      ]
    },
    {
      "id": 75,
      "plugin": "Bogaudio",
      "version": "1.1.21",
      "model": "Bogaudio-XFade",
      "params": [
        {
          "id": 0,
          "value": 0.0
        },
        {
          "id": 1,
          "value": 0.5
        },
        {
          "id": 2,
          "value": 0.0
        }
      ],
      "leftModuleId": 57,
      "rightModuleId": 59,
      "pos": [
        87,
        3
      ]
    },
    {
      "id": 71,
      "plugin": "Bogaudio",
      "version": "1.1.21",
      "model": "Bogaudio-Mix8",
      "params": [
        {
          "id": 0,
          "value": 1.0
        },
        {
          "id": 1,
          "value": 0.0
        },
        {
          "id": 2,
          "value": 0.0
        },
        {
          "id": 3,
          "value": 1.0
        },
        {
          "id": 4,
          "value": 0.0
        },
        {
          "id": 5,
          "value": 0.0
        },
        {
          "id": 6,
          "value": 1.0
        },
        {
          "id": 7,
          "value": 0.0
        },
        {
          "id": 8,
          "value": 0.0
        },
        {
          "id": 9,
          "value": 1.0
        },
        {
          "id": 10,
          "value": 0.0
        },
        {
          "id": 11,
          "value": 0.0
        },
        {
          "id": 12,
          "value": 1.0
        },
        {
          "id": 13,
          "value": 0.0
        },
        {
          "id": 14,
          "value": 0.0
        },
        {
          "id": 15,
          "value": 0.909090936
        },
        {
          "id": 16,
          "value": 1.0
        },
        {
          "id": 17,
          "value": 0.0
        },
        {
          "id": 18,
          "value": 0.909090936
        },
        {
          "id": 19,
          "value": 1.0
        },
        {
          "id": 20,
          "value": 0.0
        },
        {
          "id": 21,
          "value": 0.909090936
        },
        {
          "id": 22,
          "value": 1.0
        },
        {
          "id": 23,
          "value": 0.0
        },
        {
          "id": 24,
          "value": 1.0
        },
        {
          "id": 25,
          "value": 0.0
        }
      ],
      "leftModuleId": 24,
      "rightModuleId": 102,
      "pos": [
        26,
        2
      ]
    },
    {
      "id": 88,
      "plugin": "ML_modules",
      "version": "1.0.2",
      "model": "TrigSwitch",
      "params": [
        {
          "id": 0,
          "value": 0.0
        },
        {
          "id": 1,
          "value": 0.0
        },
        {
          "id": 2,
          "value": 0.0
        },
        {
          "id": 3,
          "value": 0.0
        },
        {
          "id": 4,
          "value": 0.0
        },
        {
          "id": 5,
          "value": 0.0
        },
        {
          "id": 6,
          "value": 0.0
        },
        {
          "id": 7,
          "value": 0.0
        },
        {
          "id": 8,
          "value": 0.0
        }
      ],
      "rightModuleId": 176,
      "data": {
        "position": 1
      },
      "pos": [
        47,
        0
      ]
    },
    {
      "id": 72,
      "plugin": "Core",
      "version": "1.1.3",
      "model": "AudioInterface",
      "params": [],
      "leftModuleId": 158,
      "rightModuleId": 162,
      "data": {
        "audio": {
          "driver": 6,
          "deviceName": "喇叭 (Scarlett Solo USB)",
          "offset": 0,
          "maxChannels": 8,
          "sampleRate": 48000,
          "blockSize": 256
        }
      },
      "pos": [
        121,
        1
      ]
    },
    {
      "id": 27,
      "plugin": "Fundamental",
      "version": "1.2.0",
      "model": "VCF",
      "params": [
        {
          "id": 0,
          "value": 0.5
        },
        {
          "id": 1,
          "value": 0.5
        },
        {
          "id": 2,
          "value": 0.0
        },
        {
          "id": 3,
          "value": 0.0
        },
        {
          "id": 4,
          "value": 0.50399965
        }
      ],
      "leftModuleId": 54,
      "rightModuleId": 28,
      "pos": [
        9,
        3
      ]
    },
    {
      "id": 102,
      "plugin": "ML_modules",
      "version": "1.0.2",
      "model": "FreeVerb",
      "params": [
        {
          "id": 0,
          "value": 0.613000274
        },
        {
          "id": 1,
          "value": 0.618499458
        },
        {
          "id": 2,
          "value": 0.0
        }
      ],
      "leftModuleId": 71,
      "rightModuleId": 106,
      "pos": [
        53,
        2
      ]
    },
    {
      "id": 106,
      "plugin": "cf",
      "version": "1.1.0",
      "model": "DISTO",
      "params": [
        {
          "id": 0,
          "value": 5.49999571
        },
        {
          "id": 1,
          "value": 0.289994121
        }
      ],
      "leftModuleId": 102,
      "rightModuleId": 164,
      "pos": [
        59,
        2
      ]
    },
    {
      "id": 97,
      "plugin": "Core",
      "version": "1.1.3",
      "model": "MIDICCToCVInterface",
      "params": [],
      "rightModuleId": 160,
      "data": {
        "ccs": [
          0,
          1,
          2,
          3,
          4,
          5,
          6,
          7,
          8,
          9,
          10,
          11,
          12,
          13,
          14,
          15
        ],
        "values": [
          0,
          0,
          127,
          0,
          124,
          0,
          0,
          0,
          0,
          0,
          0,
          0,
          127,
          0,
          0,
          127,
          0,
          0,
          0,
          0,
          0,
          0,
          0,
          0,
          0,
          0,
          0,
          0,
          0,
          0,
          0,
          0,
          0,
          0,
          0,
          0,
          0,
          0,
          0,
          0,
          0,
          0,
          0,
          0,
          0,
          0,
          0,
          0,
          0,
          0,
          0,
          0,
          0,
          0,
          0,
          0,
          0,
          0,
          0,
          0,
          0,
          0,
          0,
          0,
          0,
          0,
          0,
          0,
          0,
          0,
          0,
          0,
          0,
          0,
          0,
          0,
          0,
          0,
          0,
          0,
          0,
          0,
          0,
          0,
          0,
          0,
          0,
          0,
          0,
          0,
          0,
          0,
          0,
          0,
          0,
          0,
          0,
          0,
          0,
          0,
          0,
          0,
          0,
          0,
          0,
          0,
          0,
          0,
          0,
          0,
          0,
          0,
          0,
          0,
          0,
          0,
          0,
          0,
          0,
          0,
          0,
          0,
          0,
          0,
          0,
          0,
          0,
          0
        ],
        "midi": {
          "driver": 4,
          "deviceName": "SparkFun Pro Micro 0",
          "channel": -1
        }
      },
      "pos": [
        47,
        1
      ]
    },
    {
      "id": 113,
      "plugin": "Fundamental",
      "version": "1.2.0",
      "model": "Scope",
      "params": [
        {
          "id": 0,
          "value": 5.0
        },
        {
          "id": 1,
          "value": 0.0
        },
        {
          "id": 2,
          "value": 0.0
        },
        {
          "id": 3,
          "value": 0.0
        },
        {
          "id": 4,
          "value": 10.1449938
        },
        {
          "id": 5,
          "value": 0.0
        },
        {
          "id": 6,
          "value": 0.060000211
        },
        {
          "id": 7,
          "value": 0.0
        }
      ],
      "leftModuleId": 166,
      "rightModuleId": 183,
      "data": {
        "lissajous": 0,
        "external": 0
      },
      "pos": [
        97,
        0
      ]
    },
    {
      "id": 115,
      "plugin": "Fundamental",
      "version": "1.2.0",
      "model": "SEQ3",
      "params": [
        {
          "id": 0,
          "value": 4.11999989
        },
        {
          "id": 1,
          "value": 0.0
        },
        {
          "id": 2,
          "value": 0.0
        },
        {
          "id": 3,
          "value": 4.0
        },
        {
          "id": 4,
          "value": 0.0
        },
        {
          "id": 5,
          "value": 0.0
        },
        {
          "id": 6,
          "value": 0.0
        },
        {
          "id": 7,
          "value": 0.0
        },
        {
          "id": 8,
          "value": 0.0
        },
        {
          "id": 9,
          "value": 0.0
        },
        {
          "id": 10,
          "value": 0.0
        },
        {
          "id": 11,
          "value": 0.0
        },
        {
          "id": 12,
          "value": 0.0
        },
        {
          "id": 13,
          "value": 0.0
        },
        {
          "id": 14,
          "value": 0.0
        },
        {
          "id": 15,
          "value": 0.0
        },
        {
          "id": 16,
          "value": 0.0
        },
        {
          "id": 17,
          "value": 0.0
        },
        {
          "id": 18,
          "value": 0.0
        },
        {
          "id": 19,
          "value": 0.0
        },
        {
          "id": 20,
          "value": 0.0
        },
        {
          "id": 21,
          "value": 0.0
        },
        {
          "id": 22,
          "value": 0.0
        },
        {
          "id": 23,
          "value": 0.0
        },
        {
          "id": 24,
          "value": 0.0
        },
        {
          "id": 25,
          "value": 0.0
        },
        {
          "id": 26,
          "value": 0.0
        },
        {
          "id": 27,
          "value": 0.0
        },
        {
          "id": 28,
          "value": 0.0
        },
        {
          "id": 29,
          "value": 0.0
        },
        {
          "id": 30,
          "value": 0.0
        },
        {
          "id": 31,
          "value": 0.0
        },
        {
          "id": 32,
          "value": 0.0
        },
        {
          "id": 33,
          "value": 0.0
        },
        {
          "id": 34,
          "value": 0.0
        },
        {
          "id": 35,
          "value": 0.0
        }
      ],
      "rightModuleId": 116,
      "data": {
        "running": true,
        "gates": [
          1,
          1,
          1,
          1,
          1,
          1,
          1,
          1
        ]
      },
      "pos": [
        75,
        2
      ]
    },
    {
      "id": 116,
      "plugin": "Bogaudio",
      "version": "1.1.21",
      "model": "Bogaudio-Mix8",
      "params": [
        {
          "id": 0,
          "value": 1.0
        },
        {
          "id": 1,
          "value": 1.0
        },
        {
          "id": 2,
          "value": 0.0
        },
        {
          "id": 3,
          "value": 1.0
        },
        {
          "id": 4,
          "value": 0.0
        },
        {
          "id": 5,
          "value": 0.0
        },
        {
          "id": 6,
          "value": 1.0
        },
        {
          "id": 7,
          "value": 0.0
        },
        {
          "id": 8,
          "value": 0.0
        },
        {
          "id": 9,
          "value": 1.0
        },
        {
          "id": 10,
          "value": 0.0
        },
        {
          "id": 11,
          "value": 0.0
        },
        {
          "id": 12,
          "value": 1.0
        },
        {
          "id": 13,
          "value": 0.0
        },
        {
          "id": 14,
          "value": 0.0
        },
        {
          "id": 15,
          "value": 0.909090936
        },
        {
          "id": 16,
          "value": 1.0
        },
        {
          "id": 17,
          "value": 0.0
        },
        {
          "id": 18,
          "value": 0.909090936
        },
        {
          "id": 19,
          "value": 1.0
        },
        {
          "id": 20,
          "value": 0.0
        },
        {
          "id": 21,
          "value": 0.909090936
        },
        {
          "id": 22,
          "value": 1.0
        },
        {
          "id": 23,
          "value": 0.0
        },
        {
          "id": 24,
          "value": 1.0
        },
        {
          "id": 25,
          "value": 0.0
        }
      ],
      "leftModuleId": 115,
      "rightModuleId": 117,
      "pos": [
        97,
        2
      ]
    },
    {
      "id": 117,
      "plugin": "ML_modules",
      "version": "1.0.2",
      "model": "FreeVerb",
      "params": [
        {
          "id": 0,
          "value": 0.497500211
        },
        {
          "id": 1,
          "value": 0.618499458
        },
        {
          "id": 2,
          "value": 0.0
        }
      ],
      "leftModuleId": 116,
      "rightModuleId": 118,
      "pos": [
        124,
        2
      ]
    },
    {
      "id": 120,
      "plugin": "Bogaudio",
      "version": "1.1.21",
      "model": "Bogaudio-Reftone",
      "params": [
        {
          "id": 0,
          "value": 0.0
        },
        {
          "id": 1,
          "value": 3.0
        },
        {
          "id": 2,
          "value": 0.0
        }
      ],
      "rightModuleId": 121,
      "pos": [
        6,
        4
      ]
    },
    {
      "id": 121,
      "plugin": "Fundamental",
      "version": "1.2.0",
      "model": "VCF",
      "params": [
        {
          "id": 0,
          "value": 0.5
        },
        {
          "id": 1,
          "value": 0.5
        },
        {
          "id": 2,
          "value": 0.0
        },
        {
          "id": 3,
          "value": 0.0
        },
        {
          "id": 4,
          "value": 0.0
        }
      ],
      "leftModuleId": 120,
      "rightModuleId": 122,
      "pos": [
        9,
        4
      ]
    },
    {
      "id": 122,
      "plugin": "Fundamental",
      "version": "1.2.0",
      "model": "ADSR",
      "params": [
        {
          "id": 0,
          "value": 0.650000274
        },
        {
          "id": 1,
          "value": 0.5
        },
        {
          "id": 2,
          "value": 0.5
        },
        {
          "id": 3,
          "value": 0.5
        }
      ],
      "leftModuleId": 121,
      "rightModuleId": 123,
      "pos": [
        17,
        4
      ]
    },
    {
      "id": 123,
      "plugin": "Fundamental",
      "version": "1.2.0",
      "model": "VCA-1",
      "params": [
        {
          "id": 0,
          "value": 0.83649981
        },
        {
          "id": 1,
          "value": 1.0
        }
      ],
      "leftModuleId": 122,
      "pos": [
        25,
        4
      ]
    },
    {
      "id": 124,
      "plugin": "Bogaudio",
      "version": "1.1.21",
      "model": "Bogaudio-Reftone",
      "params": [
        {
          "id": 0,
          "value": 0.0
        },
        {
          "id": 1,
          "value": 5.0
        },
        {
          "id": 2,
          "value": -0.29403016
        }
      ],
      "rightModuleId": 125,
      "pos": [
        30,
        4
      ]
    },
    {
      "id": 125,
      "plugin": "Bogaudio",
      "version": "1.1.21",
      "model": "Bogaudio-XFade",
      "params": [
        {
          "id": 0,
          "value": -0.0120000262
        },
        {
          "id": 1,
          "value": 0.499499917
        },
        {
          "id": 2,
          "value": 0.0
        }
      ],
      "leftModuleId": 124,
      "rightModuleId": 126,
      "pos": [
        33,
        4
      ]
    },
    {
      "id": 126,
      "plugin": "Fundamental",
      "version": "1.2.0",
      "model": "VCF",
      "params": [
        {
          "id": 0,
          "value": 0.663502097
        },
        {
          "id": 1,
          "value": 0.508000076
        },
        {
          "id": 2,
          "value": 0.0
        },
        {
          "id": 3,
          "value": 0.0
        },
        {
          "id": 4,
          "value": 1.0
        }
      ],
      "leftModuleId": 125,
      "rightModuleId": 127,
      "pos": [
        36,
        4
      ]
    },
    {
      "id": 127,
      "plugin": "Fundamental",
      "version": "1.2.0",
      "model": "ADSR",
      "params": [
        {
          "id": 0,
          "value": 0.666499972
        },
        {
          "id": 1,
          "value": 0.5
        },
        {
          "id": 2,
          "value": 0.5
        },
        {
          "id": 3,
          "value": 0.5
        }
      ],
      "leftModuleId": 126,
      "rightModuleId": 128,
      "pos": [
        44,
        4
      ]
    },
    {
      "id": 128,
      "plugin": "Fundamental",
      "version": "1.2.0",
      "model": "VCA-1",
      "params": [
        {
          "id": 0,
          "value": 0.989499927
        },
        {
          "id": 1,
          "value": 1.0
        }
      ],
      "leftModuleId": 127,
      "pos": [
        52,
        4
      ]
    },
    {
      "id": 129,
      "plugin": "Bogaudio",
      "version": "1.1.21",
      "model": "Bogaudio-Reftone",
      "params": [
        {
          "id": 0,
          "value": 2.0
        },
        {
          "id": 1,
          "value": 5.0
        },
        {
          "id": 2,
          "value": -0.354420066
        }
      ],
      "rightModuleId": 130,
      "pos": [
        57,
        4
      ]
    },
    {
      "id": 130,
      "plugin": "Bogaudio",
      "version": "1.1.21",
      "model": "Bogaudio-XFade",
      "params": [
        {
          "id": 0,
          "value": 0.0
        },
        {
          "id": 1,
          "value": 0.5
        },
        {
          "id": 2,
          "value": 0.0
        }
      ],
      "leftModuleId": 129,
      "rightModuleId": 131,
      "pos": [
        60,
        4
      ]
    },
    {
      "id": 131,
      "plugin": "Fundamental",
      "version": "1.2.0",
      "model": "VCF",
      "params": [
        {
          "id": 0,
          "value": 0.663502395
        },
        {
          "id": 1,
          "value": 0.5
        },
        {
          "id": 2,
          "value": 0.0
        },
        {
          "id": 3,
          "value": 0.0
        },
        {
          "id": 4,
          "value": 1.0
        }
      ],
      "leftModuleId": 130,
      "rightModuleId": 132,
      "pos": [
        63,
        4
      ]
    },
    {
      "id": 132,
      "plugin": "Fundamental",
      "version": "1.2.0",
      "model": "ADSR",
      "params": [
        {
          "id": 0,
          "value": 0.593000114
        },
        {
          "id": 1,
          "value": 0.5
        },
        {
          "id": 2,
          "value": 0.5
        },
        {
          "id": 3,
          "value": 0.5
        }
      ],
      "leftModuleId": 131,
      "rightModuleId": 133,
      "pos": [
        71,
        4
      ]
    },
    {
      "id": 133,
      "plugin": "Fundamental",
      "version": "1.2.0",
      "model": "VCA-1",
      "params": [
        {
          "id": 0,
          "value": 1.0
        },
        {
          "id": 1,
          "value": 1.0
        }
      ],
      "leftModuleId": 132,
      "pos": [
        79,
        4
      ]
    },
    {
      "id": 134,
      "plugin": "Bogaudio",
      "version": "1.1.21",
      "model": "Bogaudio-Reftone",
      "params": [
        {
          "id": 0,
          "value": 8.0
        },
        {
          "id": 1,
          "value": 5.0
        },
        {
          "id": 2,
          "value": 0.0524698868
        }
      ],
      "rightModuleId": 135,
      "pos": [
        84,
        4
      ]
    },
    {
      "id": 135,
      "plugin": "Bogaudio",
      "version": "1.1.21",
      "model": "Bogaudio-XFade",
      "params": [
        {
          "id": 0,
          "value": 0.0
        },
        {
          "id": 1,
          "value": 0.5
        },
        {
          "id": 2,
          "value": 0.0
        }
      ],
      "leftModuleId": 134,
      "rightModuleId": 136,
      "pos": [
        87,
        4
      ]
    },
    {
      "id": 136,
      "plugin": "Fundamental",
      "version": "1.2.0",
      "model": "VCF",
      "params": [
        {
          "id": 0,
          "value": 0.663502395
        },
        {
          "id": 1,
          "value": 0.5
        },
        {
          "id": 2,
          "value": 0.0
        },
        {
          "id": 3,
          "value": 0.0
        },
        {
          "id": 4,
          "value": 1.0
        }
      ],
      "leftModuleId": 135,
      "rightModuleId": 137,
      "pos": [
        90,
        4
      ]
    },
    {
      "id": 137,
      "plugin": "Fundamental",
      "version": "1.2.0",
      "model": "ADSR",
      "params": [
        {
          "id": 0,
          "value": 0.515000045
        },
        {
          "id": 1,
          "value": 0.5
        },
        {
          "id": 2,
          "value": 0.5
        },
        {
          "id": 3,
          "value": 0.49849999
        }
      ],
      "leftModuleId": 136,
      "rightModuleId": 138,
      "pos": [
        98,
        4
      ]
    },
    {
      "id": 138,
      "plugin": "Fundamental",
      "version": "1.2.0",
      "model": "VCA-1",
      "params": [
        {
          "id": 0,
          "value": 1.0
        },
        {
          "id": 1,
          "value": 1.0
        }
      ],
      "leftModuleId": 137,
      "pos": [
        106,
        4
      ]
    },
    {
      "id": 139,
      "plugin": "Bogaudio",
      "version": "1.1.21",
      "model": "Bogaudio-Reftone",
      "params": [
        {
          "id": 0,
          "value": 5.0
        },
        {
          "id": 1,
          "value": 5.0
        },
        {
          "id": 2,
          "value": 0.0
        }
      ],
      "rightModuleId": 140,
      "pos": [
        111,
        4
      ]
    },
    {
      "id": 140,
      "plugin": "Fundamental",
      "version": "1.2.0",
      "model": "VCF",
      "params": [
        {
          "id": 0,
          "value": 0.5
        },
        {
          "id": 1,
          "value": 0.5
        },
        {
          "id": 2,
          "value": 0.0
        },
        {
          "id": 3,
          "value": 0.0
        },
        {
          "id": 4,
          "value": 1.0
        }
      ],
      "leftModuleId": 139,
      "rightModuleId": 141,
      "pos": [
        114,
        4
      ]
    },
    {
      "id": 141,
      "plugin": "Fundamental",
      "version": "1.2.0",
      "model": "ADSR",
      "params": [
        {
          "id": 0,
          "value": 0.686500013
        },
        {
          "id": 1,
          "value": 0.5
        },
        {
          "id": 2,
          "value": 0.5
        },
        {
          "id": 3,
          "value": 0.5
        }
      ],
      "leftModuleId": 140,
      "rightModuleId": 142,
      "pos": [
        122,
        4
      ]
    },
    {
      "id": 142,
      "plugin": "Fundamental",
      "version": "1.2.0",
      "model": "VCA-1",
      "params": [
        {
          "id": 0,
          "value": 1.0
        },
        {
          "id": 1,
          "value": 1.0
        }
      ],
      "leftModuleId": 141,
      "pos": [
        130,
        4
      ]
    },
    {
      "id": 144,
      "plugin": "JW-Modules",
      "version": "1.0.7",
      "model": "SimpleClock",
      "params": [
        {
          "id": 0,
          "value": 2.35599995
        },
        {
          "id": 1,
          "value": 0.0
        },
        {
          "id": 2,
          "value": -2.0
        },
        {
          "id": 3,
          "value": 0.0
        }
      ],
      "leftModuleId": 175,
      "data": {
        "running": false
      },
      "pos": [
        11,
        1
      ]
    },
    {
      "id": 158,
      "plugin": "Bogaudio",
      "version": "1.1.21",
      "model": "Bogaudio-UMix",
      "params": [
        {
          "id": 0,
          "value": 0.417322844
        }
      ],
      "leftModuleId": 163,
      "rightModuleId": 72,
      "data": {
        "sum": true,
        "cv_mode": false
      },
      "pos": [
        118,
        1
      ]
    },
    {
      "id": 160,
      "plugin": "Core",
      "version": "1.1.3",
      "model": "MIDIToCVInterface",
      "params": [],
      "leftModuleId": 97,
      "rightModuleId": 177,
      "data": {
        "channels": 1,
        "polyMode": 0,
        "clockDivision": 24,
        "lastPitch": 8192,
        "lastMod": 0,
        "midi": {
          "driver": 4,
          "deviceName": "SparkFun Pro Micro 0",
          "channel": -1
        }
      },
      "pos": [
        57,
        1
      ]
    },
    {
      "id": 161,
      "plugin": "Fundamental",
      "version": "1.2.0",
      "model": "VCO",
      "params": [
        {
          "id": 0,
          "value": 1.0
        },
        {
          "id": 1,
          "value": 1.0
        },
        {
          "id": 2,
          "value": 12.001605
        },
        {
          "id": 3,
          "value": 0.447000027
        },
        {
          "id": 4,
          "value": 0.0
        },
        {
          "id": 5,
          "value": 0.570560038
        },
        {
          "id": 6,
          "value": 0.169500038
        }
      ],
      "rightModuleId": 173,
      "pos": [
        65,
        0
      ]
    },
    {
      "id": 162,
      "plugin": "Fundamental",
      "version": "1.2.0",
      "model": "Scope",
      "params": [
        {
          "id": 0,
          "value": 0.0
        },
        {
          "id": 1,
          "value": 0.0
        },
        {
          "id": 2,
          "value": 4.0
        },
        {
          "id": 3,
          "value": 0.0
        },
        {
          "id": 4,
          "value": 14.0
        },
        {
          "id": 5,
          "value": 0.0
        },
        {
          "id": 6,
          "value": 0.0
        },
        {
          "id": 7,
          "value": 0.0
        }
      ],
      "leftModuleId": 72,
      "data": {
        "lissajous": 0,
        "external": 0
      },
      "pos": [
        131,
        1
      ]
    },
    {
      "id": 163,
      "plugin": "Fundamental",
      "version": "1.2.0",
      "model": "Mutes",
      "params": [
        {
          "id": 0,
          "value": 0.0
        },
        {
          "id": 1,
          "value": 0.0
        },
        {
          "id": 2,
          "value": 0.0
        },
        {
          "id": 3,
          "value": 0.0
        },
        {
          "id": 4,
          "value": 0.0
        },
        {
          "id": 5,
          "value": 0.0
        },
        {
          "id": 6,
          "value": 0.0
        },
        {
          "id": 7,
          "value": 0.0
        },
        {
          "id": 8,
          "value": 0.0
        },
        {
          "id": 9,
          "value": 0.0
        }
      ],
      "rightModuleId": 158,
      "data": {
        "states": [
          true,
          true,
          false,
          false,
          false,
          false,
          false,
          false,
          false,
          false
        ]
      },
      "pos": [
        110,
        1
      ]
    },
    {
      "id": 164,
      "plugin": "Bogaudio",
      "version": "1.1.21",
      "model": "Bogaudio-UMix",
      "params": [
        {
          "id": 0,
          "value": 0.228346452
        }
      ],
      "leftModuleId": 106,
      "data": {
        "sum": true,
        "cv_mode": false
      },
      "pos": [
        67,
        2
      ]
    },
    {
      "id": 165,
      "plugin": "Bogaudio",
      "version": "1.1.21",
      "model": "Bogaudio-UMix",
      "params": [
        {
          "id": 0,
          "value": 0.787401557
        }
      ],
      "leftModuleId": 118,
      "data": {
        "sum": true,
        "cv_mode": false
      },
      "pos": [
        138,
        2
      ]
    },
    {
      "id": 166,
      "plugin": "Bogaudio",
      "version": "1.1.21",
      "model": "Bogaudio-UMix",
      "params": [
        {
          "id": 0,
          "value": 0.379484117
        }
      ],
      "leftModuleId": 169,
      "rightModuleId": 113,
      "data": {
        "sum": true,
        "cv_mode": false
      },
      "pos": [
        94,
        0
      ]
    },
    {
      "id": 169,
      "plugin": "Bogaudio",
      "version": "1.1.21",
      "model": "Bogaudio-SampleHold",
      "params": [
        {
          "id": 0,
          "value": 0.0
        },
        {
          "id": 1,
          "value": 0.0
        },
        {
          "id": 2,
          "value": 1.0
        },
        {
          "id": 3,
          "value": 0.0
        }
      ],
      "leftModuleId": 174,
      "rightModuleId": 166,
      "pos": [
        91,
        0
      ]
    },
    {
      "id": 118,
      "plugin": "cf",
      "version": "1.1.0",
      "model": "DISTO",
      "params": [
        {
          "id": 0,
          "value": 4.49499798
        },
        {
          "id": 1,
          "value": 1.00499964
        }
      ],
      "leftModuleId": 117,
      "rightModuleId": 165,
      "pos": [
        130,
        2
      ]
    },
    {
      "id": 173,
      "plugin": "Fundamental",
      "version": "1.2.0",
      "model": "Delay",
      "params": [
        {
          "id": 0,
          "value": 0.47600019
        },
        {
          "id": 1,
          "value": 0.773000002
        },
        {
          "id": 2,
          "value": 0.5
        },
        {
          "id": 3,
          "value": 0.795999944
        }
      ],
      "leftModuleId": 161,
      "rightModuleId": 174,
      "pos": [
        75,
        0
      ]
    },
    {
      "id": 174,
      "plugin": "Fundamental",
      "version": "1.2.0",
      "model": "ADSR",
      "params": [
        {
          "id": 0,
          "value": 0.527559042
        },
        {
          "id": 1,
          "value": 0.496062994
        },
        {
          "id": 2,
          "value": 0.496062994
        },
        {
          "id": 3,
          "value": 0.496062994
        }
      ],
      "leftModuleId": 173,
      "rightModuleId": 169,
      "pos": [
        83,
        0
      ]
    },
    {
      "id": 175,
      "plugin": "BaconMusic",
      "version": "1.0.2",
      "model": "PolyGnome",
      "params": [
        {
          "id": 0,
          "value": 2.40944862
        },
        {
          "id": 1,
          "value": 1.0
        },
        {
          "id": 2,
          "value": 1.0
        },
        {
          "id": 3,
          "value": 1.0
        },
        {
          "id": 4,
          "value": 1.0
        },
        {
          "id": 5,
          "value": 1.0
        },
        {
          "id": 6,
          "value": 1.0
        },
        {
          "id": 7,
          "value": 1.0
        },
        {
          "id": 8,
          "value": 1.0
        }
      ],
      "rightModuleId": 144,
      "pos": [
        0,
        1
      ]
    },
    {
      "id": 176,
      "plugin": "ML_modules",
      "version": "1.0.2",
      "model": "TrigSwitch",
      "params": [
        {
          "id": 0,
          "value": 0.0
        },
        {
          "id": 1,
          "value": 0.0
        },
        {
          "id": 2,
          "value": 0.0
        },
        {
          "id": 3,
          "value": 0.0
        },
        {
          "id": 4,
          "value": 0.0
        },
        {
          "id": 5,
          "value": 0.0
        },
        {
          "id": 6,
          "value": 0.0
        },
        {
          "id": 7,
          "value": 0.0
        },
        {
          "id": 8,
          "value": 0.0
        }
      ],
      "leftModuleId": 88,
      "data": {
        "position": 0
      },
      "pos": [
        55,
        0
      ]
    },
    {
      "id": 177,
      "plugin": "Core",
      "version": "1.1.3",
      "model": "CV-MIDI",
      "params": [],
      "leftModuleId": 160,
      "data": {
        "midi": {
          "driver": 4,
          "deviceName": "SparkFun Pro Micro 1",
          "channel": 0
        }
      },
      "pos": [
        65,
        1
      ]
    },
    {
      "id": 178,
      "plugin": "Core",
      "version": "1.1.3",
      "model": "Notes",
      "params": [],
      "text": "Inputs\nCC#0 ~ CC#3 is for top switch which will change the programmed SEQ \n\nCC#12 ~ CC#14 is for 2 way switch which change the tone of note.",
      "pos": [
        23,
        0
      ]
    },
    {
      "id": 179,
      "plugin": "Core",
      "version": "1.1.3",
      "model": "MIDI-Map",
      "params": [],
      "leftModuleId": 184,
      "data": {
        "maps": [
          {
            "cc": 27,
            "moduleId": 175,
            "paramId": 0
          },
          {
            "cc": 73,
            "moduleId": 174,
            "paramId": 0
          },
          {
            "cc": 75,
            "moduleId": 174,
            "paramId": 1
          },
          {
            "cc": 70,
            "moduleId": 174,
            "paramId": 2
          },
          {
            "cc": 72,
            "moduleId": 174,
            "paramId": 3
          },
          {
            "cc": -1,
            "moduleId": -1,
            "paramId": 0
          }
        ],
        "midi": {
          "driver": 4,
          "deviceName": "iPad 1",
          "channel": -1
        }
      },
      "pos": [
        34,
        1
      ]
    },
    {
      "id": 180,
      "plugin": "Fundamental",
      "version": "1.2.0",
      "model": "VCMixer",
      "params": [
        {
          "id": 0,
          "value": 1.0
        },
        {
          "id": 1,
          "value": 1.0
        },
        {
          "id": 2,
          "value": 1.0
        },
        {
          "id": 3,
          "value": 1.0
        },
        {
          "id": 4,
          "value": 1.0
        }
      ],
      "pos": [
        92,
        1
      ]
    },
    {
      "id": 183,
      "plugin": "JW-Modules",
      "version": "1.0.7",
      "model": "WavHead",
      "params": [],
      "leftModuleId": 113,
      "data": {
        "invert": true,
        "neg5ToPos5": false,
        "snowMode": false
      },
      "pos": [
        110,
        0
      ]
    },
    {
      "id": 184,
      "plugin": "cf",
      "version": "1.1.0",
      "model": "LABEL",
      "params": [],
      "rightModuleId": 179,
      "data": {
        "lastPath": "Right clic to write"
      },
      "pos": [
        32,
        1
      ]
    }
  ],
  "cables": [
    {
      "id": 100,
      "outputModuleId": 33,
      "outputId": 0,
      "inputModuleId": 29,
      "inputId": 0,
      "color": "#0986ad"
    },
    {
      "id": 116,
      "outputModuleId": 42,
      "outputId": 0,
      "inputModuleId": 41,
      "inputId": 0,
      "color": "#0c8e15"
    },
    {
      "id": 121,
      "outputModuleId": 24,
      "outputId": 8,
      "inputModuleId": 42,
      "inputId": 4,
      "color": "#0986ad"
    },
    {
      "id": 122,
      "outputModuleId": 24,
      "outputId": 8,
      "inputModuleId": 42,
      "inputId": 5,
      "color": "#c9b70e"
    },
    {
      "id": 124,
      "outputModuleId": 24,
      "outputId": 4,
      "inputModuleId": 28,
      "inputId": 4,
      "color": "#c9b70e"
    },
    {
      "id": 125,
      "outputModuleId": 24,
      "outputId": 4,
      "inputModuleId": 28,
      "inputId": 5,
      "color": "#0c8e15"
    },
    {
      "id": 161,
      "outputModuleId": 55,
      "outputId": 1,
      "inputModuleId": 29,
      "inputId": 3,
      "color": "#0986ad"
    },
    {
      "id": 163,
      "outputModuleId": 57,
      "outputId": 1,
      "inputModuleId": 59,
      "inputId": 3,
      "color": "#0c8e15"
    },
    {
      "id": 165,
      "outputModuleId": 39,
      "outputId": 0,
      "inputModuleId": 59,
      "inputId": 0,
      "color": "#0986ad"
    },
    {
      "id": 167,
      "outputModuleId": 60,
      "outputId": 1,
      "inputModuleId": 41,
      "inputId": 3,
      "color": "#0c8e15"
    },
    {
      "id": 95,
      "outputModuleId": 28,
      "outputId": 0,
      "inputModuleId": 66,
      "inputId": 0,
      "color": "#c91847"
    },
    {
      "id": 175,
      "outputModuleId": 33,
      "outputId": 0,
      "inputModuleId": 67,
      "inputId": 0,
      "color": "#0c8e15"
    },
    {
      "id": 178,
      "outputModuleId": 36,
      "outputId": 0,
      "inputModuleId": 68,
      "inputId": 0,
      "color": "#0c8e15"
    },
    {
      "id": 180,
      "outputModuleId": 39,
      "outputId": 0,
      "inputModuleId": 69,
      "inputId": 0,
      "color": "#0986ad"
    },
    {
      "id": 181,
      "outputModuleId": 42,
      "outputId": 0,
      "inputModuleId": 70,
      "inputId": 0,
      "color": "#c9b70e"
    },
    {
      "id": 190,
      "outputModuleId": 24,
      "outputId": 11,
      "inputModuleId": 73,
      "inputId": 1,
      "color": "#0c8e15"
    },
    {
      "id": 191,
      "outputModuleId": 24,
      "outputId": 5,
      "inputModuleId": 73,
      "inputId": 2,
      "color": "#c91847"
    },
    {
      "id": 192,
      "outputModuleId": 73,
      "outputId": 0,
      "inputModuleId": 33,
      "inputId": 4,
      "color": "#0986ad"
    },
    {
      "id": 193,
      "outputModuleId": 73,
      "outputId": 0,
      "inputModuleId": 33,
      "inputId": 5,
      "color": "#c9b70e"
    },
    {
      "id": 162,
      "outputModuleId": 56,
      "outputId": 1,
      "inputModuleId": 35,
      "inputId": 3,
      "color": "#c9b70e"
    },
    {
      "id": 102,
      "outputModuleId": 36,
      "outputId": 0,
      "inputModuleId": 35,
      "inputId": 0,
      "color": "#0c8e15"
    },
    {
      "id": 194,
      "outputModuleId": 24,
      "outputId": 10,
      "inputModuleId": 74,
      "inputId": 2,
      "color": "#0986ad"
    },
    {
      "id": 195,
      "outputModuleId": 24,
      "outputId": 6,
      "inputModuleId": 74,
      "inputId": 1,
      "color": "#c9b70e"
    },
    {
      "id": 196,
      "outputModuleId": 74,
      "outputId": 0,
      "inputModuleId": 36,
      "inputId": 4,
      "color": "#0986ad"
    },
    {
      "id": 197,
      "outputModuleId": 74,
      "outputId": 0,
      "inputModuleId": 36,
      "inputId": 5,
      "color": "#c9b70e"
    },
    {
      "id": 198,
      "outputModuleId": 24,
      "outputId": 7,
      "inputModuleId": 75,
      "inputId": 1,
      "color": "#0c8e15"
    },
    {
      "id": 199,
      "outputModuleId": 24,
      "outputId": 9,
      "inputModuleId": 75,
      "inputId": 2,
      "color": "#c91847"
    },
    {
      "id": 200,
      "outputModuleId": 75,
      "outputId": 0,
      "inputModuleId": 39,
      "inputId": 4,
      "color": "#0986ad"
    },
    {
      "id": 201,
      "outputModuleId": 75,
      "outputId": 0,
      "inputModuleId": 39,
      "inputId": 5,
      "color": "#c9b70e"
    },
    {
      "id": 187,
      "outputModuleId": 70,
      "outputId": 0,
      "inputModuleId": 71,
      "inputId": 14,
      "color": "#c91847"
    },
    {
      "id": 186,
      "outputModuleId": 69,
      "outputId": 0,
      "inputModuleId": 71,
      "inputId": 11,
      "color": "#0c8e15"
    },
    {
      "id": 185,
      "outputModuleId": 68,
      "outputId": 0,
      "inputModuleId": 71,
      "inputId": 8,
      "color": "#c9b70e"
    },
    {
      "id": 184,
      "outputModuleId": 67,
      "outputId": 0,
      "inputModuleId": 71,
      "inputId": 5,
      "color": "#0986ad"
    },
    {
      "id": 183,
      "outputModuleId": 66,
      "outputId": 0,
      "inputModuleId": 71,
      "inputId": 2,
      "color": "#c91847"
    },
    {
      "id": 160,
      "outputModuleId": 54,
      "outputId": 1,
      "inputModuleId": 27,
      "inputId": 3,
      "color": "#c91847"
    },
    {
      "id": 90,
      "outputModuleId": 28,
      "outputId": 0,
      "inputModuleId": 27,
      "inputId": 0,
      "color": "#0c8e15"
    },
    {
      "id": 332,
      "outputModuleId": 97,
      "outputId": 0,
      "inputModuleId": 88,
      "inputId": 7,
      "color": "#c91847"
    },
    {
      "id": 333,
      "outputModuleId": 97,
      "outputId": 1,
      "inputModuleId": 88,
      "inputId": 0,
      "color": "#0986ad"
    },
    {
      "id": 334,
      "outputModuleId": 97,
      "outputId": 2,
      "inputModuleId": 88,
      "inputId": 1,
      "color": "#c9b70e"
    },
    {
      "id": 335,
      "outputModuleId": 97,
      "outputId": 3,
      "inputModuleId": 88,
      "inputId": 2,
      "color": "#0c8e15"
    },
    {
      "id": 349,
      "outputModuleId": 125,
      "outputId": 0,
      "inputModuleId": 127,
      "inputId": 4,
      "color": "#c9b70e"
    },
    {
      "id": 350,
      "outputModuleId": 125,
      "outputId": 0,
      "inputModuleId": 127,
      "inputId": 5,
      "color": "#0c8e15"
    },
    {
      "id": 351,
      "outputModuleId": 130,
      "outputId": 0,
      "inputModuleId": 132,
      "inputId": 4,
      "color": "#c91847"
    },
    {
      "id": 352,
      "outputModuleId": 130,
      "outputId": 0,
      "inputModuleId": 132,
      "inputId": 5,
      "color": "#0986ad"
    },
    {
      "id": 353,
      "outputModuleId": 135,
      "outputId": 0,
      "inputModuleId": 137,
      "inputId": 4,
      "color": "#c9b70e"
    },
    {
      "id": 354,
      "outputModuleId": 135,
      "outputId": 0,
      "inputModuleId": 137,
      "inputId": 5,
      "color": "#0c8e15"
    },
    {
      "id": 358,
      "outputModuleId": 120,
      "outputId": 1,
      "inputModuleId": 121,
      "inputId": 3,
      "color": "#0c8e15"
    },
    {
      "id": 359,
      "outputModuleId": 124,
      "outputId": 1,
      "inputModuleId": 126,
      "inputId": 3,
      "color": "#c91847"
    },
    {
      "id": 360,
      "outputModuleId": 129,
      "outputId": 1,
      "inputModuleId": 131,
      "inputId": 3,
      "color": "#0986ad"
    },
    {
      "id": 361,
      "outputModuleId": 134,
      "outputId": 1,
      "inputModuleId": 136,
      "inputId": 3,
      "color": "#0c8e15"
    },
    {
      "id": 362,
      "outputModuleId": 139,
      "outputId": 1,
      "inputModuleId": 140,
      "inputId": 3,
      "color": "#c91847"
    },
    {
      "id": 363,
      "outputModuleId": 122,
      "outputId": 0,
      "inputModuleId": 121,
      "inputId": 0,
      "color": "#0986ad"
    },
    {
      "id": 364,
      "outputModuleId": 127,
      "outputId": 0,
      "inputModuleId": 126,
      "inputId": 0,
      "color": "#c9b70e"
    },
    {
      "id": 365,
      "outputModuleId": 132,
      "outputId": 0,
      "inputModuleId": 131,
      "inputId": 0,
      "color": "#0c8e15"
    },
    {
      "id": 366,
      "outputModuleId": 137,
      "outputId": 0,
      "inputModuleId": 136,
      "inputId": 0,
      "color": "#c91847"
    },
    {
      "id": 367,
      "outputModuleId": 141,
      "outputId": 0,
      "inputModuleId": 140,
      "inputId": 0,
      "color": "#0986ad"
    },
    {
      "id": 368,
      "outputModuleId": 121,
      "outputId": 0,
      "inputModuleId": 123,
      "inputId": 1,
      "color": "#c9b70e"
    },
    {
      "id": 369,
      "outputModuleId": 126,
      "outputId": 0,
      "inputModuleId": 128,
      "inputId": 1,
      "color": "#0c8e15"
    },
    {
      "id": 370,
      "outputModuleId": 131,
      "outputId": 0,
      "inputModuleId": 133,
      "inputId": 1,
      "color": "#c91847"
    },
    {
      "id": 371,
      "outputModuleId": 136,
      "outputId": 0,
      "inputModuleId": 138,
      "inputId": 1,
      "color": "#0986ad"
    },
    {
      "id": 372,
      "outputModuleId": 140,
      "outputId": 0,
      "inputModuleId": 142,
      "inputId": 1,
      "color": "#c9b70e"
    },
    {
      "id": 373,
      "outputModuleId": 122,
      "outputId": 0,
      "inputModuleId": 123,
      "inputId": 0,
      "color": "#0c8e15"
    },
    {
      "id": 374,
      "outputModuleId": 127,
      "outputId": 0,
      "inputModuleId": 128,
      "inputId": 0,
      "color": "#c91847"
    },
    {
      "id": 375,
      "outputModuleId": 132,
      "outputId": 0,
      "inputModuleId": 133,
      "inputId": 0,
      "color": "#0986ad"
    },
    {
      "id": 376,
      "outputModuleId": 137,
      "outputId": 0,
      "inputModuleId": 138,
      "inputId": 0,
      "color": "#c9b70e"
    },
    {
      "id": 377,
      "outputModuleId": 141,
      "outputId": 0,
      "inputModuleId": 142,
      "inputId": 0,
      "color": "#0c8e15"
    },
    {
      "id": 378,
      "outputModuleId": 123,
      "outputId": 0,
      "inputModuleId": 116,
      "inputId": 2,
      "color": "#c91847"
    },
    {
      "id": 379,
      "outputModuleId": 128,
      "outputId": 0,
      "inputModuleId": 116,
      "inputId": 5,
      "color": "#0986ad"
    },
    {
      "id": 380,
      "outputModuleId": 133,
      "outputId": 0,
      "inputModuleId": 116,
      "inputId": 8,
      "color": "#c9b70e"
    },
    {
      "id": 381,
      "outputModuleId": 138,
      "outputId": 0,
      "inputModuleId": 116,
      "inputId": 11,
      "color": "#0c8e15"
    },
    {
      "id": 382,
      "outputModuleId": 142,
      "outputId": 0,
      "inputModuleId": 116,
      "inputId": 14,
      "color": "#c91847"
    },
    {
      "id": 384,
      "outputModuleId": 144,
      "outputId": 1,
      "inputModuleId": 24,
      "inputId": 2,
      "color": "#c9b70e"
    },
    {
      "id": 418,
      "outputModuleId": 158,
      "outputId": 0,
      "inputModuleId": 72,
      "inputId": 0,
      "color": "#c91847"
    },
    {
      "id": 419,
      "outputModuleId": 158,
      "outputId": 0,
      "inputModuleId": 72,
      "inputId": 1,
      "color": "#0986ad"
    },
    {
      "id": 425,
      "outputModuleId": 158,
      "outputId": 0,
      "inputModuleId": 113,
      "inputId": 0,
      "color": "#c91847"
    },
    {
      "id": 427,
      "outputModuleId": 160,
      "outputId": 0,
      "inputModuleId": 161,
      "inputId": 0,
      "color": "#0c8e15"
    },
    {
      "id": 432,
      "outputModuleId": 163,
      "outputId": 0,
      "inputModuleId": 158,
      "inputId": 0,
      "color": "#0986ad"
    },
    {
      "id": 441,
      "outputModuleId": 106,
      "outputId": 0,
      "inputModuleId": 164,
      "inputId": 0,
      "color": "#c9b70e"
    },
    {
      "id": 431,
      "outputModuleId": 163,
      "outputId": 1,
      "inputModuleId": 158,
      "inputId": 1,
      "color": "#c91847"
    },
    {
      "id": 456,
      "outputModuleId": 169,
      "outputId": 0,
      "inputModuleId": 163,
      "inputId": 0,
      "color": "#0c8e15"
    },
    {
      "id": 440,
      "outputModuleId": 164,
      "outputId": 0,
      "inputModuleId": 88,
      "inputId": 8,
      "color": "#0986ad"
    },
    {
      "id": 337,
      "outputModuleId": 118,
      "outputId": 0,
      "inputModuleId": 165,
      "inputId": 0,
      "color": "#0986ad"
    },
    {
      "id": 388,
      "outputModuleId": 117,
      "outputId": 1,
      "inputModuleId": 118,
      "inputId": 0,
      "color": "#c9b70e"
    },
    {
      "id": 338,
      "outputModuleId": 116,
      "outputId": 1,
      "inputModuleId": 117,
      "inputId": 0,
      "color": "#c9b70e"
    },
    {
      "id": 385,
      "outputModuleId": 144,
      "outputId": 1,
      "inputModuleId": 115,
      "inputId": 2,
      "color": "#0c8e15"
    },
    {
      "id": 465,
      "outputModuleId": 173,
      "outputId": 0,
      "inputModuleId": 166,
      "inputId": 7,
      "color": "#0986ad"
    },
    {
      "id": 455,
      "outputModuleId": 166,
      "outputId": 0,
      "inputModuleId": 162,
      "inputId": 0,
      "color": "#c9b70e"
    },
    {
      "id": 476,
      "outputModuleId": 166,
      "outputId": 0,
      "inputModuleId": 169,
      "inputId": 1,
      "color": "#c91847"
    },
    {
      "id": 341,
      "outputModuleId": 115,
      "outputId": 4,
      "inputModuleId": 125,
      "inputId": 1,
      "color": "#0986ad"
    },
    {
      "id": 343,
      "outputModuleId": 115,
      "outputId": 5,
      "inputModuleId": 130,
      "inputId": 1,
      "color": "#0c8e15"
    },
    {
      "id": 176,
      "outputModuleId": 29,
      "outputId": 1,
      "inputModuleId": 67,
      "inputId": 1,
      "color": "#c91847"
    },
    {
      "id": 177,
      "outputModuleId": 35,
      "outputId": 1,
      "inputModuleId": 68,
      "inputId": 1,
      "color": "#c9b70e"
    },
    {
      "id": 179,
      "outputModuleId": 59,
      "outputId": 1,
      "inputModuleId": 69,
      "inputId": 1,
      "color": "#c91847"
    },
    {
      "id": 182,
      "outputModuleId": 41,
      "outputId": 1,
      "inputModuleId": 70,
      "inputId": 1,
      "color": "#0c8e15"
    },
    {
      "id": 96,
      "outputModuleId": 27,
      "outputId": 1,
      "inputModuleId": 66,
      "inputId": 1,
      "color": "#0986ad"
    },
    {
      "id": 307,
      "outputModuleId": 71,
      "outputId": 1,
      "inputModuleId": 106,
      "inputId": 0,
      "color": "#0986ad"
    },
    {
      "id": 457,
      "outputModuleId": 175,
      "outputId": 0,
      "inputModuleId": 115,
      "inputId": 1,
      "color": "#c91847"
    },
    {
      "id": 386,
      "outputModuleId": 175,
      "outputId": 0,
      "inputModuleId": 24,
      "inputId": 1,
      "color": "#c91847"
    },
    {
      "id": 477,
      "outputModuleId": 97,
      "outputId": 12,
      "inputModuleId": 176,
      "inputId": 0,
      "color": "#0986ad"
    },
    {
      "id": 442,
      "outputModuleId": 165,
      "outputId": 0,
      "inputModuleId": 88,
      "inputId": 10,
      "color": "#0c8e15"
    },
    {
      "id": 478,
      "outputModuleId": 97,
      "outputId": 13,
      "inputModuleId": 176,
      "inputId": 1,
      "color": "#c9b70e"
    },
    {
      "id": 479,
      "outputModuleId": 97,
      "outputId": 14,
      "inputModuleId": 176,
      "inputId": 2,
      "color": "#0c8e15"
    },
    {
      "id": 480,
      "outputModuleId": 161,
      "outputId": 1,
      "inputModuleId": 176,
      "inputId": 8,
      "color": "#c91847"
    },
    {
      "id": 481,
      "outputModuleId": 161,
      "outputId": 2,
      "inputModuleId": 176,
      "inputId": 9,
      "color": "#0986ad"
    },
    {
      "id": 482,
      "outputModuleId": 176,
      "outputId": 0,
      "inputModuleId": 173,
      "inputId": 4,
      "color": "#c9b70e"
    },
    {
      "id": 453,
      "outputModuleId": 160,
      "outputId": 1,
      "inputModuleId": 174,
      "inputId": 4,
      "color": "#c91847"
    },
    {
      "id": 483,
      "outputModuleId": 174,
      "outputId": 0,
      "inputModuleId": 169,
      "inputId": 0,
      "color": "#0c8e15"
    },
    {
      "id": 484,
      "outputModuleId": 175,
      "outputId": 5,
      "inputModuleId": 177,
      "inputId": 5,
      "color": "#0986ad"
    },
    {
      "id": 454,
      "outputModuleId": 169,
      "outputId": 0,
      "inputModuleId": 162,
      "inputId": 1,
      "color": "#0986ad"
    },
    {
      "id": 235,
      "outputModuleId": 88,
      "outputId": 0,
      "inputModuleId": 180,
      "inputId": 1,
      "color": "#c91847"
    },
    {
      "id": 487,
      "outputModuleId": 180,
      "outputId": 1,
      "inputModuleId": 163,
      "inputId": 1,
      "color": "#c9b70e"
    },
    {
      "id": 490,
      "outputModuleId": 97,
      "outputId": 4,
      "inputModuleId": 113,
      "inputId": 1,
      "color": "#0c8e15"
    },
    {
      "id": 488,
      "outputModuleId": 97,
      "outputId": 4,
      "inputModuleId": 180,
      "inputId": 0,
      "color": "#0c8e15"
    },
    {
      "id": 491,
      "outputModuleId": 97,
      "outputId": 4,
      "inputModuleId": 183,
      "inputId": 0,
      "color": "#c91847"
    }
  ]
}